<?xml version="1.0" standalone="no"?>
<!DOCTYPE svg PUBLIC "-//W3C//DTD SVG 1.1//EN" "http://www.w3.org/Graphics/SVG/1.1/DTD/svg11.dtd">
<svg xmlns="http://www.w3.org/2000/svg">
<defs >
<font id="KaushanScript" horiz-adv-x="391" ><font-face
    font-family="Kaushan Script"
    units-per-em="1000"
    panose-1="3 6 6 2 4 7 5 8 2 5"
    ascent="1084"
    descent="-367"
    alphabetic="0" />
<glyph unicode=" " glyph-name="space" horiz-adv-x="238" />
<glyph unicode="!" glyph-name="exclam" horiz-adv-x="300" d="M143 188Q143 215 157 266T195 380T247 509T305 634T362 734T409 791Q425 788 443 777T478 751T506 720T520 692Q469 650 419 588T327 449T252 287T204 110Q192 113 181 117T161 130T148 152T143
188ZM121 -77Q109 -77 98 -72T79 -59T65 -43T60 -29Q60 -17 63 2T72 38T87 68T107 81Q135 81 163 62T206 18Q194 5 185 -11T167 -42T147 -67T121 -77Z" />
<glyph unicode="&quot;" glyph-name="quotedbl" horiz-adv-x="367" d="M245 507Q239 512 234 523T229 545Q241 580 251 625T262 727Q262 752 260 778T250 833Q298 830 337 813T390 770Q373 679 338 612T245 507ZM425 507Q419 512 414 523T409 545Q421 580 431
625T442 727Q442 752 440 778T430 833Q478 830 517 813T570 770Q553 679 518 612T425 507Z" />
<glyph unicode="#" glyph-name="numbersign" horiz-adv-x="676" d="M250 344Q220 344 206 356T191 391Q191 407 198 425Q214 423 229 421T268 419Q288 419 312 419T363 421Q392 512 420 608T473 801Q497 801 522 788T563 743Q534 660 505 581T446 424L536 429Q565
519 592 612T643 801Q667 801 692 788T733 743Q704 663 676 586T620 434Q657 436 683 437T718 439Q737 439 750 425T765 368Q740 371 724 372T696 373Q675 373 650 372T595 369Q584 343 575 318T554 267Q587 269 610 270T641 271Q660 271 672 257T687 200Q663 203
647 204T619 205Q600 205 577 204T528 201Q479 83 435 -8T352 -155Q330 -143 326 -112Q349 -70 383 9T456 196Q430 194 404 192T352 188Q305 75 262 -13T182 -155Q160 -143 156 -112Q178 -72 210 4T281 182Q246 179 218 178T173 176Q143 176 128 188T113 223Q113
231 115 239T120 257Q137 255 152 253T191 251Q215 251 245 251T307 253Q315 276 323 300T339 348Q311 346 288 345T250 344ZM419 355Q409 329 400 305T380 257Q406 258 431 259T480 262Q488 287 497 312T514 363Q490 361 466 359T419 355Z" />
<glyph unicode="$" glyph-name="dollar" horiz-adv-x="668" d="M595 703Q628 692 661 677T726 642Q728 628 728 622T729 608Q729 573 713 543T673 502Q655 534 626 557T561 595Q543 538 525 484T490 376L502 370Q585 325 628 275T671 149Q671 99 654 59T607 -9T535
-53T442 -69Q391 -69 333 -49Q316 -85 301 -116T270 -174Q245 -169 238 -138Q249 -121 262 -94T289 -32Q253 -16 220 5T161 52T120 104T105 161Q105 181 117 213T161 280Q161 250 184 207T258 126Q293 99 331 82Q349 136 368 195T404 317Q319 365 281 411T242 516Q242
559 258 597T306 663T380 707T478 723Q485 723 492 723T507 721Q514 753 519 781T529 833Q550 827 578 816T621 786L595 703ZM618 138Q618 157 607 176T574 214T524 251T461 288Q440 227 420 172T380 65Q406 57 431 54T479 50Q521 50 548 60T590 83T612 112T618
138ZM292 556Q292 539 303 521T334 485T378 448T430 412Q444 466 457 517T483 617Q468 619 454 620T425 622Q398 622 374 617T332 604T303 583T292 556Z" />
<glyph unicode="%" glyph-name="percent" horiz-adv-x="619" d="M563 265Q582 265 596 257T619 235T633 205T638 171Q638 156 631 143T613 121T589 106T564 100Q550 100 536 106T511 124T493 150T485 181Q485 193 491 208T509 235T534 256T563 265ZM305 649Q324
649 338 641T361 619T375 588T380 554Q380 539 373 527T355 505T331 490T306 484Q292 484 278 490T253 508T234 533T227 565Q227 577 233 592T250 619T275 640T305 649ZM739 713Q689 638 634 562T522 414T410 274T303 148T208 42T129 -39Q118 -37 105 -24T87 7Q126
42 174 95T273 213T377 349T479 493T570 634T643 761Q655 761 670 757T699 745T725 730T739 713Z" />
<glyph unicode="&amp;" glyph-name="ampersand" horiz-adv-x="667" d="M591 332Q555 332 539 343T523 380Q523 396 529 417Q548 414 565 413T608 412Q640 412 661 412T697 414T720 415T736 416Q760 416 771 399T792 339Q763 342 745 343T712 344Q702 344 694 344T679
343Q644 287 599 223T501 100T391 -3T277 -67Q238 -63 206 -48T150 -11T112 41T96 105Q97 152 115 198T163 285T228 357T302 408Q265 424 250 446T234 494Q234 530 259 569T323 643T404 701T484 732Q494 730 512 720T549 694T581 664T598 637Q596 625 590 610T573
581T552 553T530 532Q520 535 518 542Q530 554 541 576T552 619Q552 630 547 633T531 637Q503 637 469 615T406 560T356 490T336 421Q347 420 362 415T393 401T419 384T434 368Q385 356 344 321T272 241T226 147T209 59Q209 24 224 2T271 -21Q298 -21 329 -4T394
43T461 110T526 187T585 265T635 336Q626 334 616 333T591 332Z" />
<glyph unicode="&apos;" glyph-name="quotesingle" horiz-adv-x="187" d="M245 507Q239 512 234 523T229 545Q241 580 251 625T262 727Q262 752 260 778T250 833Q298 830 337 813T390 770Q373 679 338 612T245 507Z" />
<glyph unicode="(" glyph-name="parenleft" horiz-adv-x="319" d="M240 -144Q217 -117 199 -86T167 -16T146 70T139 177Q139 299 169 407T248 603T359 755T486 852Q500 846 515 831T544 799T567 767T577 746Q498 732 432 674T317 533T241 353T213 164Q213 124
215 82T223 -1T235 -75T252 -131L240 -144Z" />
<glyph unicode=")" glyph-name="parenright" horiz-adv-x="322" d="M295 802Q318 775 336 744T368 674T389 588T396 481Q396 359 366 251T287 54T176 -97T49 -194Q35 -188 20 -173T-9 -141T-32 -109T-42 -88Q37 -74 103 -16T218 125T294 305T322 494Q322 534 320
576T312 659T300 732T283 789L295 802Z" />
<glyph unicode="*" glyph-name="asterisk" horiz-adv-x="455" d="M435 832Q484 831 503 814T522 773Q522 748 507 721T473 673Q502 674 532 683T596 706Q599 691 599 666Q599 655 599 644T594 624T580 609T554 603Q530 603 506 606T457 621Q467 594 484 569T526
514Q507 503 488 497T451 491Q434 491 424 503T409 533T403 570T401 602Q401 607 401 611T402 621Q379 603 361 579T323 521Q316 527 308 535T293 554T280 577T275 604Q275 616 289 627T321 648T358 664T385 673Q362 688 333 698T266 717Q277 755 294 770T329 785Q343
785 357 778T385 759T409 733T428 703Q435 720 437 738T440 774Q440 789 439 803T435 832Z" />
<glyph unicode="+" glyph-name="plus" horiz-adv-x="557" d="M321 39Q301 42 280 55T238 86Q246 115 254 143T270 200Q253 198 236 197T202 196Q166 196 145 213T123 262Q123 267 125 277T130 293Q149 290 166 289T212 288Q235 288 257 288T301 290Q324 353 347
402T394 481Q406 479 425 471T462 454T496 434T515 418Q492 393 472 364T432 299Q468 302 494 305T535 308Q557 308 574 285T599 219Q570 222 552 223T519 224Q483 224 451 222T389 215Q370 173 353 129T321 39Z" />
<glyph unicode="," glyph-name="comma" horiz-adv-x="240" d="M17 -169Q11 -164 6 -153T1 -131Q51 -88 72 -49T94 36Q94 66 92 87T82 137Q107 135 131 129T175 113T208 91T224 66Q177 -100 17 -169Z" />
<glyph unicode="-" glyph-name="hyphen" horiz-adv-x="526" d="M204 186Q173 186 155 203T136 252Q136 257 138 267T142 282Q159 279 174 279T213 278Q264 278 308 281T389 288T451 295T491 298Q510 298 524 275T546 209Q521 212 505 213T477 214Q434 214 397
210T327 200T264 191T204 186Z" />
<glyph unicode="." glyph-name="period" horiz-adv-x="241" d="M125 -38Q109 -36 92 -25T69 1Q69 13 72 32T81 70T91 107T98 134Q110 134 128 128T166 112T203 88T230 60Q221 40 207 22T178 -9T148 -30T125 -38Z" />
<glyph unicode="/" glyph-name="slash" horiz-adv-x="545" d="M740 743Q656 596 564 457T379 198T197 -18T31 -174Q20 -172 7 -159T-11 -128Q26 -106 69 -63T160 37T257 162T354 302T444 446T523 585T585 706T624 801Q636 801 654 795T691 780T723 761T740 743Z" />
<glyph unicode="0" glyph-name="zero" horiz-adv-x="646" d="M298 -36Q262 -29 232 -15T180 25T146 88T133 180Q133 241 150 306T197 432T269 549T360 646T463 712T574 737Q616 737 646 722T697 679T728 613T738 529Q738 470 724 405T682 278T617 160T529 60T422
-9T298 -36ZM258 139Q258 71 282 43T352 7Q397 9 437 41T512 122T573 232T620 353T649 466T659 555Q659 610 647 644T605 686Q559 680 516 650T434 573T363 470T308 353T271 238T258 139Z" />
<glyph unicode="1" glyph-name="one" horiz-adv-x="438" d="M374 72Q407 72 425 56T444 10Q444 2 443 -6T439 -21Q426 -19 410 -18T372 -16Q342 -16 311 -20T249 -28T191 -37T139 -41Q100 -41 72 -26T34 15Q38 19 53 23T91 33T142 44T201 54Q215 114 232 177T268
304T307 430T347 550Q313 534 277 508T214 458Q203 464 203 485Q240 535 278 574T362 657Q373 668 388 688T415 728Q429 724 450 720T491 709T528 693T551 672Q538 661 528 649T509 623Q489 587 463 523T409 382T354 223T304 68Q325 70 342 71T374 72Z" />
<glyph unicode="2" glyph-name="two" horiz-adv-x="564" d="M645 558Q645 510 624 465T564 375T474 283T360 182Q332 158 313 139T279 103T255 69T235 33Q315 38 394 69T531 150Q535 145 541 135T551 111T559 82T563 51Q563 26 552 8Q542 -3 524 -9T480 -18T426
-22T366 -23Q336 -23 306 -24T249 -29T198 -40T158 -59Q134 -48 115 -27T87 20Q93 49 108 74T148 126T212 184T302 259Q360 307 407 349T486 429T536 505T554 582Q554 631 529 659T463 687Q434 687 407 674T359 637T325 583T312 518Q312 493 319 474T343 434Q329
431 317 431Q293 431 273 439T239 461T216 494T208 536Q208 574 230 608T288 669T369 710T462 726Q503 726 537 714T595 680T632 626T645 558Z" />
<glyph unicode="3" glyph-name="three" horiz-adv-x="555" d="M232 662Q247 672 273 681T329 698T389 709T444 713Q485 713 514 702T561 672T587 630T595 583Q595 558 586 530T558 474T515 420T458 372Q524 364 554 332T584 246Q584 195 565 155T514 83T439 29T351
-8T256 -29T165 -36Q128 -28 109 3T90 79Q90 82 90 85T91 92Q122 82 171 82Q222 82 281 94T390 129T473 186T506 265Q506 298 485 319T417 347Q387 329 360 322T318 314Q295 314 279 334T263 395Q308 395 358 405T451 439T521 504T552 607Q547 627 529 636T484
645Q460 645 432 638T375 619T320 589T274 551Q254 563 243 587T231 644Q231 649 231 653T232 662Z" />
<glyph unicode="4" glyph-name="four" horiz-adv-x="570" d="M620 688Q650 681 681 666T730 624Q677 551 631 473T543 312L592 322Q601 312 602 300L523 271Q487 197 460 123T416 -31Q386 -30 358 -24T309 6Q327 66 349 123T397 239Q378 237 354 235T309 232Q282
232 253 234T197 244T146 265T104 300Q183 390 250 495T368 710Q403 699 437 683T501 643Q467 604 429 559T353 468T283 382T228 310Q254 299 281 295T337 290Q356 290 379 291T422 294Q471 396 520 493T620 688Z" />
<glyph unicode="5" glyph-name="five" horiz-adv-x="538" d="M175 381Q188 417 210 464T257 557T306 645T347 709Q367 701 391 688T435 655Q449 656 474 660T527 670T578 681T615 691Q649 675 668 643T703 565Q642 581 574 590T440 599Q419 581 400 556T363 505T333
454T310 413Q345 427 382 427Q416 427 444 414T492 378T523 325T534 258Q534 203 500 151T412 57T292 -9T159 -36Q135 -31 110 -8T74 55Q111 56 154 64T240 89T324 127T395 177T444 235T463 302Q463 363 394 363Q362 363 328 353T264 323Q242 331 216 346T175 381Z"
/>
<glyph unicode="6" glyph-name="six" horiz-adv-x="565" d="M550 732Q561 732 579 725T616 707T653 681T682 651Q647 646 594 619T483 547T373 444T283 319Q307 344 334 366T388 406T443 435T496 447Q517 436 538 419T576 381T604 337T615 291Q615 261 599 224T555
150T493 77T422 15T349 -29T285 -46Q207 -30 158 12T108 124Q108 182 127 245T180 370T257 490T350 597T451 680T550 732ZM494 400Q432 380 381 347T294 273T237 188T216 103Q216 88 221 72T235 42T256 17T281 1Q321 20 364 59T444 144T505 239T529 327Q529 347
521 367T494 400Z" />
<glyph unicode="7" glyph-name="seven" horiz-adv-x="557" d="M241 364Q264 368 287 370T333 372Q344 372 354 372T376 370Q413 433 457 496T552 618Q517 631 483 637T422 644Q328 644 303 572Q265 579 238 602T202 659Q238 732 335 732Q363 732 395 725T460 706T524
680T583 652Q594 663 604 674T625 696Q651 685 673 661T704 611Q644 579 588 509T487 349Q534 334 568 311T619 258L612 251Q588 265 548 275T460 292Q418 198 394 103T370 -69Q324 -61 287 -42T238 0Q240 56 266 134T338 302Q297 302 266 300T203 294Q203 296
203 296T202 298Q202 305 206 315T215 334T228 352T241 364Z" />
<glyph unicode="8" glyph-name="eight" horiz-adv-x="569" d="M584 207Q584 151 561 105T500 26T415 -26T322 -45Q278 -45 239 -36T171 -7T124 46T107 129Q107 174 123 211T169 279T239 335T328 382Q293 414 268 451T242 539Q242 581 263 616T318 678T394 720T477
742Q552 718 599 680T647 594Q647 568 632 543T592 494T534 450T467 413Q488 392 509 371T546 324T573 271T584 207ZM212 108Q212 80 220 60T241 26T272 6T308 -1Q333 -1 359 11T406 48T440 107T453 187Q453 235 430 270T375 337Q330 311 299 282T248 224T221 165T212
108ZM557 617Q557 649 542 668T503 691Q482 687 459 676T417 647T385 610T372 568Q372 533 388 505T428 451Q447 463 469 483T511 526T544 572T557 617Z" />
<glyph unicode="9" glyph-name="nine" horiz-adv-x="554" d="M231 -60Q217 -56 198 -47T161 -27T129 -4T111 19Q146 23 196 54T301 132T406 240T492 365Q470 342 444 319T390 277T335 246T285 233Q264 244 244 263T208 304T182 351T172 399Q172 429 189 465T233
537T296 608T368 668T440 711T503 727Q581 711 628 666T675 550Q675 510 656 454T603 335T525 209T431 91T331 -4T231 -60ZM292 290Q341 300 391 332T482 408T547 499T573 589Q573 603 566 618T546 648T519 672T487 688Q463 675 437 654T387 605T341 547T303 485T277
424T267 369Q267 346 272 325T292 290Z" />
<glyph unicode=":" glyph-name="colon" horiz-adv-x="285" d="M143 -38Q127 -36 110 -25T87 1Q87 13 90 32T99 70T109 107T116 134Q128 134 146 128T184 112T221 88T248 60Q239 40 225 22T196 -9T166 -30T143 -38ZM243 280Q227 282 210 293T187 319Q187 331 190
350T199 388T209 425T216 452Q228 452 246 446T284 430T321 406T348 378Q339 358 325 340T296 309T266 288T243 280Z" />
<glyph unicode=";" glyph-name="semicolon" horiz-adv-x="284" d="M39 -169Q33 -164 28 -153T23 -131Q73 -88 94 -49T116 36Q116 66 114 87T104 137Q129 135 153 129T197 113T230 91T246 66Q199 -100 39 -169ZM239 280Q223 282 206 293T183 319Q183 331 186 350T195
388T205 425T212 452Q224 452 242 446T280 430T317 406T344 378Q335 358 321 340T292 309T262 288T239 280Z" />
<glyph unicode="&lt;" glyph-name="less" horiz-adv-x="516" d="M533 191Q472 177 419 168T309 158Q285 158 257 160T202 172T152 197T114 240Q118 254 132 270T166 303T206 338T247 372Q275 397 297 421T341 473T386 535T438 616Q462 616 483 609T519 590T544
564T553 536Q553 525 551 514T547 493Q541 498 533 498Q523 498 502 483T454 445T397 391T336 332T280 276T236 233Q243 228 252 224T275 217T310 213T362 211Q382 211 407 213T458 218T505 224T543 230Q544 227 544 222Q544 214 541 205T533 191Z" />
<glyph unicode="=" glyph-name="equal" horiz-adv-x="570" d="M196 93Q162 93 144 110T126 154Q126 163 127 172T134 192Q151 190 165 188T204 186Q255 186 300 189T381 195T443 201T483 204Q502 204 516 181T537 117Q512 119 497 120T469 121Q426 121 389 117T319
107T256 98T196 93ZM258 288Q227 288 209 305T190 352Q190 359 192 369T196 385Q213 383 228 381T267 379Q318 379 362 382T443 389T505 396T545 399Q564 399 578 377T600 312Q575 315 559 316T531 317Q488 317 451 313T381 303T318 293T258 288Z" />
<glyph unicode="&gt;" glyph-name="greater" horiz-adv-x="623" d="M318 550Q361 538 399 520T470 479T534 430T594 375Q616 353 636 319T656 244Q656 229 653 216Q640 208 620 206T574 203Q545 203 514 204T456 206Q420 206 389 203T323 194T251 177T161 153Q128
199 128 232Q128 262 155 276T229 293Q262 294 309 295T405 298T497 301T567 302Q565 311 562 319T550 337T528 362T493 398Q473 417 449 436T397 473T341 504T284 527Q287 535 298 542T318 550Z" />
<glyph unicode="?" glyph-name="question" horiz-adv-x="480" d="M413 777Q452 774 488 757T553 714T598 654T615 583Q615 545 602 512T562 445T498 375T412 292Q365 248 341 203T317 120Q317 115 317 110T319 99Q302 100 283 107T247 125T216 150T196 178Q196
201 207 233T240 301T298 373T383 438Q462 485 501 529T540 608Q540 624 534 639T517 666T494 685T467 693Q452 693 434 678T399 641T372 593T361 546Q361 532 364 528Q356 526 351 526T341 526Q321 526 302 530T266 540T238 554T223 572Q230 605 251 640T299 704T356
754T413 777ZM192 -77Q184 -77 174 -74T154 -63T137 -45T130 -19Q130 -10 133 6T142 39T159 68T184 81Q193 81 206 76T233 62T258 42T276 18Q265 6 256 -10T237 -42T217 -67T192 -77Z" />
<glyph unicode="@" glyph-name="at" horiz-adv-x="655" d="M277 472Q323 510 373 531T475 552Q521 552 562 535T635 491T686 429T705 360Q705 333 694 303T663 242T619 183T568 134T514 100T465 87Q444 87 423 97T385 124T358 161T347 203Q347 227 356 252T383
300T428 341T491 371Q509 364 525 352T555 325T576 294T585 261Q566 269 545 269Q524 269 506 260T474 237T452 205T444 167Q444 139 472 139Q498 139 532 164T596 226T647 303T668 376Q668 397 659 415T633 446T594 467T547 475Q495 475 441 444T343 363T270 252T242
132Q242 95 253 63T283 7T329 -31T387 -45Q431 -45 484 -13T616 91Q621 82 622 78T624 69Q594 39 563 10T500 -41T433 -77T362 -91Q312 -91 269 -65T193 0T141 87T122 178Q122 207 131 244T160 321T208 400T277 472Z" />
<glyph unicode="A" glyph-name="A" horiz-adv-x="642" d="M146 -76Q98 -62 80 -48T61 -13Q61 3 70 32T96 100T138 188T194 291Q168 292 148 292T114 293Q120 308 148 319T222 338Q261 403 305 462T395 570T485 657T571 717Q572 724 572 729T573 736Q587 736 610
729T656 712T696 692T716 674Q683 616 651 501T598 224Q593 184 590 133T586 19Q586 -3 586 -26T588 -74Q586 -75 584 -75T576 -75Q562 -75 544 -71T508 -60T478 -45T462 -31Q461 -18 461 -6T461 21Q461 83 465 147T481 279Q467 280 444 281T393 284T332 286T268
289Q244 244 223 200T187 110Q170 62 160 14T146 -76ZM532 525Q536 539 541 563T552 615Q527 606 497 582T434 523T368 443T303 348Q387 355 494 357Q502 399 511 440T532 525Z" />
<glyph unicode="B" glyph-name="B" horiz-adv-x="719" d="M790 551Q790 489 756 441T663 360Q701 334 723 297T746 214Q746 160 714 108T627 15T504 -51T363 -76Q285 -76 227 -47T135 37Q145 67 161 111T198 205T238 304T277 392Q315 477 345 533T400 622Q345
605 300 584T234 542Q225 548 216 560T198 586T184 616T177 643Q203 661 244 677T335 706T435 725T534 732Q654 732 722 684T790 551ZM409 312Q390 321 374 339Q351 288 331 239T294 148T268 75T257 30Q271 22 290 18T339 14Q407 14 469 33T578 84T653 159T681
247Q681 313 624 342Q546 310 448 310Q434 310 427 310T409 312ZM603 659Q582 659 559 657T509 649Q513 645 515 641T520 631Q511 619 498 596T469 543T436 475T400 399Q417 403 441 405T490 408Q503 408 515 407T540 404Q588 412 626 427T693 463T736 509T751
562Q751 610 713 634T603 659Z" />
<glyph unicode="C" glyph-name="C" horiz-adv-x="604" d="M142 196Q142 266 158 333T205 461T276 572T367 660T473 717T588 738Q657 738 695 709T734 628Q734 608 729 587T713 546T688 506T657 473Q631 477 612 496T588 542Q623 571 643 602T664 660Q664 704 609
704Q586 704 562 695T512 668T464 627T420 574Q281 374 281 165Q281 91 304 46T365 -7Q408 3 474 48T618 165Q628 155 630 144Q601 106 570 71T509 7T449 -44T394 -78Q270 -76 206 -7T142 196Z" />
<glyph unicode="D" glyph-name="D" horiz-adv-x="778" d="M168 52Q183 85 204 137T248 249T295 373T340 494T376 596T399 665Q336 639 291 586T223 453Q200 461 181 481T156 533Q166 579 193 617T263 682T360 723T478 738Q558 738 625 715T740 649T815 548T842
417Q842 319 806 230T709 73T566 -35T396 -76Q314 -76 256 -44T168 52ZM521 688Q471 688 426 674Q470 658 499 641T539 613Q531 602 516 574T480 506T436 419T391 321Q334 194 309 121T283 20Q297 15 317 13T360 11Q441 11 513 48T640 149T726 295T758 471Q758
574 694 631T521 688Z" />
<glyph unicode="E" glyph-name="E" horiz-adv-x="609" d="M514 426Q547 426 565 408T584 358Q584 350 583 342T579 327Q566 329 550 330T512 332Q469 332 425 325T341 312Q318 259 299 210T267 119T246 48T237 3Q318 20 400 32T574 50Q585 33 592 13T600 -30Q600
-36 600 -43T598 -57Q570 -56 539 -56T458 -55Q425 -55 396 -56T336 -61T273 -69T197 -81Q151 -63 108 7Q125 43 155 116T233 313Q188 327 174 363Q179 368 203 375T262 391Q277 430 287 459T306 513T320 563T333 617Q298 619 278 636T258 682Q258 690 260 701T266
720Q286 717 304 716T353 715Q416 715 471 718T570 726T647 733T696 737Q719 737 737 713T764 645Q733 648 714 649T679 650Q624 650 579 645T491 633Q485 624 478 610T458 571T429 508T386 413Q424 419 457 422T514 426Z" />
<glyph unicode="F" glyph-name="F" horiz-adv-x="551" d="M520 417Q552 417 570 399T589 349Q589 341 588 333T584 318Q571 320 555 321T517 323Q472 323 427 315T341 302Q296 196 267 103T222 -81Q188 -73 162 -52T113 7Q120 23 130 45T154 102T187 186T234 305Q192
319 179 354Q184 359 207 365T263 380Q278 419 289 449T309 507T325 561T339 618H334Q296 618 273 636T249 683Q249 691 251 702T258 721Q277 718 295 717T344 716Q407 716 462 719T561 727T638 734T687 738Q710 738 728 714T756 646Q724 649 705 650T670 651Q619
651 577 647T496 636Q490 627 483 613T463 574T433 507T386 403Q425 409 460 413T520 417Z" />
<glyph unicode="G" glyph-name="G" horiz-adv-x="650" d="M655 318Q681 318 696 300T711 250Q711 242 710 234T707 219Q686 224 661 225Q655 181 629 133T566 42T485 -33T398 -76Q264 -73 203 -7T141 201Q141 304 179 400T280 572T424 692T594 738Q663 738 701
709T740 627Q740 592 724 562T669 497Q646 504 629 521T608 562Q642 587 656 608T670 658Q670 704 615 704Q570 704 519 671T415 574Q341 485 307 391T273 178Q273 134 282 98T306 35T341 -8T386 -26Q418 -19 450 6T508 66T553 140T576 216Q548 210 523 205T474
199Q444 199 422 214T391 255Q409 265 443 276T517 296T593 312T655 318Z" />
<glyph unicode="H" glyph-name="H" horiz-adv-x="675" d="M491 58Q491 100 505 166T542 307Q476 302 410 294T294 285Q249 180 223 92T181 -81Q143 -72 118 -50T72 7Q80 23 90 48T115 108T148 191T191 302Q158 316 147 341Q152 345 169 349T213 359L226 391Q247
445 260 482T283 554T301 633T322 742Q364 734 398 705T458 635Q449 623 436 599T408 542T374 467T335 379Q397 387 460 394T573 404Q591 456 610 505T649 596T685 668T717 714Q727 713 743 707T777 691T808 672T827 652Q809 635 791 608T756 546T721 470T689 385Q709
367 709 340Q709 321 701 305Q692 307 683 307T664 309Q647 255 633 202T610 101T595 13T589 -54Q589 -64 589 -70T591 -80Q569 -79 559 -73T544 -59T535 -44T522 -32Q515 -29 509 -18T499 7T493 35T491 58Z" />
<glyph unicode="I" glyph-name="I" horiz-adv-x="315" d="M131 57Q131 93 142 150T172 274T215 410T264 541T313 648T356 714Q366 713 382 707T416 691T447 672T465 652Q436 626 408 574T353 454T303 313T263 168T237 38T227 -59Q227 -76 230 -80Q208 -79 198
-73T183 -59T173 -44T159 -32Q152 -29 147 -18T139 6T133 34T131 57Z" />
<glyph unicode="J" glyph-name="J" horiz-adv-x="512" d="M476 739Q514 739 555 725T627 689Q617 638 609 597T593 523T580 462T567 410Q543 320 518 248T464 117T404 14T336 -65Q301 -98 266 -119T201 -146Q161 -146 127 -137T69 -113T31 -76T17 -28Q17 0 31
42T74 143Q86 142 102 137T134 125T163 110T182 93Q150 60 130 21T110 -48Q110 -65 116 -78T139 -103Q200 -80 258 -18T361 138Q388 193 410 264T447 406T471 543T480 654Q480 661 480 673T479 699T477 724T476 739Z" />
<glyph unicode="K" glyph-name="K" horiz-adv-x="653" d="M334 317Q396 409 456 486T572 620T673 707T753 738Q766 738 781 728T810 702T833 668T842 632Q780 612 721 580T607 505T503 410T413 299Q429 258 452 212T504 122T564 41T629 -18Q624 -29 612 -39T586
-57T557 -71T528 -76Q502 -76 480 -52T436 22T389 145T334 317ZM183 -81Q145 -72 120 -50T74 7Q83 26 95 57T126 133T169 242T227 391Q248 445 261 482T284 554T303 633T324 742Q366 734 400 705T460 635Q449 621 435 593T402 524T362 435T316 331Q262 211 231
112T183 -81Z" />
<glyph unicode="L" glyph-name="L" horiz-adv-x="500" d="M473 57Q498 14 498 -26Q498 -35 497 -42T493 -58Q476 -56 458 -55T419 -54Q395 -54 371 -55T316 -60T249 -68T163 -81Q140 -73 117 -50T74 7Q84 29 99 61T134 140T178 249T231 394Q249 448 262 489T285
568T306 649T328 746Q368 738 397 717T454 655Q446 642 433 613T403 543T364 449T320 336Q298 277 277 225T240 131T213 59T203 14Q219 15 232 16T259 19T289 25T329 35Q349 40 366 43T399 49T433 53T473 57Z" />
<glyph unicode="M" glyph-name="M" horiz-adv-x="942" d="M514 -74Q512 -75 510 -75T502 -75Q488 -75 470 -71T434 -60T404 -45T388 -31Q387 -17 387 -2T387 27Q387 139 403 261T458 525Q462 539 466 560T476 607Q452 588 419 547T350 449T277 325T210 188T159
50T132 -76Q84 -62 66 -48T47 -14Q47 4 58 37T89 115T138 215T202 335Q242 408 280 472T356 588T428 678T499 736Q513 736 536 729T582 712T622 692T642 674Q628 646 609 590T571 463T534 313T506 160Q529 215 559 274T624 392T693 506T763 606T826 686T879 736Q893
736 916 729T962 712T1002 692T1022 674Q990 617 966 535T926 363T901 185T892 26Q892 3 892 -22T894 -74Q880 -74 861 -71T823 -61T789 -48T768 -31Q767 -17 767 -2T767 27Q767 139 783 261T838 525Q842 539 847 563T857 613Q829 599 794 560T722 464T650 338T586
198T538 56T514 -74Z" />
<glyph unicode="N" glyph-name="N" horiz-adv-x="683" d="M190 -76Q133 -59 113 -44T93 -1Q93 29 107 83T143 205T195 345T254 485T312 607T363 694L356 736Q370 736 395 729T445 712T490 692T512 674Q507 650 504 602T501 498Q501 389 509 285T549 72Q565 152
583 231T622 383T662 518T700 626T735 699T764 728Q775 726 788 720T813 704T835 684T851 662Q819 649 788 601T728 485T675 336T632 179T603 35T591 -71Q591 -73 592 -74Q589 -75 586 -75T579 -75Q533 -75 498 -64T451 -31Q430 53 416 131T393 287T378 444T369
611Q350 581 329 533T288 426T250 304T217 179T195 64T187 -31Q187 -52 187 -61T190 -76Z" />
<glyph unicode="O" glyph-name="O" horiz-adv-x="723" d="M562 728Q581 720 601 708T638 682T666 657T679 636Q662 640 645 641T614 643Q569 643 525 621T440 561T366 472T308 363T269 243T255 121Q255 43 281 5T357 -33Q381 -33 409 -24T466 3T523 44T575 97Q610
139 638 192T685 306T715 429T726 554Q726 578 725 594T723 622T720 641T718 653Q730 647 744 639T771 614T792 570T801 500Q801 430 785 363T739 234T669 120T583 27Q523 -26 455 -55T324 -84Q232 -84 184 -26T135 147Q135 208 148 276T186 410T245 535T319 640T406
713T502 740Q518 740 532 738T562 728Z" />
<glyph unicode="P" glyph-name="P" horiz-adv-x="642" d="M782 539Q782 484 755 434T681 347T572 287T439 265Q414 265 400 271T367 297Q317 188 286 97T236 -81Q198 -72 174 -50T130 7Q140 26 154 57T188 133T234 242T297 391Q313 430 325 459T346 513T362 564T378
619Q331 604 292 584T226 542Q217 548 208 560T190 586T176 616T169 643Q198 663 241 680T333 709T434 729T535 736Q592 736 638 722T716 681T765 619T782 539ZM604 659Q566 659 526 653L538 635Q528 622 513 596T480 534T441 452T395 357Q473 357 537 371T646
411T717 471T743 544Q743 596 708 627T604 659Z" />
<glyph unicode="Q" glyph-name="Q" horiz-adv-x="719" d="M597 728Q614 720 633 708T668 682T695 656T706 636Q692 639 676 641T644 643Q590 643 539 620T442 552T358 445T291 301Q268 234 254 169T240 59Q240 3 263 1Q269 1 283 -1T314 -8T347 -16T375 -25Q413
-23 464 10T564 98Q607 146 641 203T700 324T736 455T749 588Q749 608 748 627T745 653Q786 633 803 606T820 537Q820 477 801 408T749 270T669 138T569 24Q498 -42 453 -50Q480 -64 515 -80T583 -111T642 -136T677 -147Q687 -146 703 -135T730 -107Q735 -113 739
-123T745 -138Q741 -152 729 -170T700 -206T668 -237T639 -253Q622 -252 608 -249T576 -238T538 -217T486 -182Q431 -144 390 -119T315 -79T251 -58T189 -52Q77 -52 65 -127Q50 -120 48 -108Q54 -57 85 -30T183 5Q137 45 137 145Q137 215 153 286T198 424T265 547T348
648T441 715T536 740Q553 740 567 737T597 728Z" />
<glyph unicode="R" glyph-name="R" horiz-adv-x="691" d="M781 551Q781 503 760 461T700 385T611 328T500 297Q515 252 536 205T583 113T635 32T688 -29Q683 -39 674 -49T652 -67T626 -81T600 -87Q578 -87 558 -66T518 0T475 118T425 293Q414 293 403 293T386
295Q379 299 371 309Q344 251 323 200T286 102T257 10T235 -81Q201 -73 176 -52T129 7Q133 16 137 24T149 48T166 88T194 152T236 250T296 391Q312 428 323 456T344 509T360 560T376 619Q330 603 291 584T225 542Q216 548 207 560T189 586T175 616T168 643Q198
663 241 680T334 709T434 729T529 736Q649 736 715 687T781 551ZM537 635Q530 626 515 599T481 535T440 453T398 366Q473 366 536 380T645 419T716 479T742 556Q742 606 706 632T595 659Q578 659 561 658T525 654L537 635Z" />
<glyph unicode="S" glyph-name="S" horiz-adv-x="702" d="M753 674Q756 657 757 651T759 633Q759 600 745 572T705 531Q685 558 656 577T593 609T521 628T449 634Q414 634 384 629T330 614T293 590T279 558Q282 536 306 514T365 470T442 427T526 387Q577 363 614
343T675 298T711 242T723 167Q723 116 706 72T657 -6T578 -57T475 -76Q419 -76 354 -59T233 -13T139 55T101 137Q101 157 112 188T154 253Q157 223 186 182T275 106Q330 74 388 60T498 45Q554 45 589 59T644 92T672 132T681 164Q680 184 663 202T616 238T547 274T466
310Q403 338 358 362T283 412T240 466T226 530Q226 586 260 636T358 712Q390 726 426 732T498 738Q564 738 627 720T753 674Z" />
<glyph unicode="T" glyph-name="T" horiz-adv-x="588" d="M299 606Q259 606 238 628T216 683Q216 691 218 702T225 721Q238 715 263 713T323 710Q374 710 438 714T562 724T666 733T724 738Q761 738 777 711T802 637Q776 639 751 640T707 642Q675 642 643 640T577
634Q563 605 546 566T513 483T481 398T455 321Q433 255 417 199T388 95T366 2T350 -84Q283 -74 238 0Q246 31 257 67T284 150T321 256T369 390Q379 418 390 448T411 509T430 567T445 618Q403 613 366 610T299 606Z" />
<glyph unicode="U" glyph-name="U" horiz-adv-x="697" d="M485 673Q441 614 405 543T344 398T305 251T291 115Q291 37 314 2T393 -33Q458 -33 507 12T599 138Q627 190 647 252T679 379T698 511T704 639Q704 678 703 696T700 725Q703 725 715 723T742 718T773 710T800
699Q795 623 782 542T746 382T695 230T630 99Q577 13 511 -35T355 -84Q263 -84 212 -31T161 132Q161 195 175 274T212 436T267 597T332 738Q349 737 372 731T417 716T457 695T485 673Z" />
<glyph unicode="V" glyph-name="V" horiz-adv-x="617" d="M419 -64Q396 -76 370 -76Q338 -72 309 -60T265 -31Q257 18 252 59T244 136T240 206T239 274Q239 319 240 369T242 475T245 596T246 737Q259 737 285 730T336 712T382 692T404 674Q394 646 387 601T375
501T368 385T366 264Q366 219 367 184T369 120T374 67T381 18Q409 103 442 188T511 351T582 498T648 616T705 696T746 728Q757 726 769 720T793 704T813 684T827 662Q790 649 748 601T662 486T579 339T506 183T450 41T419 -64Z" />
<glyph unicode="W" glyph-name="W" horiz-adv-x="953" d="M229 -31Q224 10 222 58T219 149Q219 216 223 277T234 406T249 553T263 737Q276 737 300 730T350 712T394 692T416 674Q399 635 386 572T363 433T349 279T344 131Q344 99 345 68T348 11Q369 42 396 99T453
228T512 376T567 524T609 651T634 737Q647 737 672 730T722 712T766 692T787 674Q770 635 757 572T734 433T720 279T715 131Q715 102 715 74T718 22Q750 105 784 186T853 342T919 481T978 596T1025 680T1056 724Q1079 721 1103 708T1147 673Q1118 650 1081 598T1005
476T927 329T853 177T793 39T752 -64Q726 -76 701 -76Q669 -72 641 -60T600 -31Q597 -15 595 6T592 49T591 89T590 123Q590 212 597 304T614 503Q591 435 563 357T505 203T443 57T381 -64Q355 -76 330 -76Q298 -72 270 -60T229 -31Z" />
<glyph unicode="X" glyph-name="X" horiz-adv-x="637" d="M647 -4Q638 -13 621 -24T583 -45T543 -62T509 -71Q496 -71 486 -61T465 -16T440 87T403 271Q346 212 297 157T213 55T158 -27T138 -80Q126 -79 114 -71T91 -52T75 -28T68 -3Q71 8 83 28T113 71Q151 120
221 184T392 327Q327 650 208 650Q220 679 246 701T303 728Q336 728 357 720T395 677T429 575T472 387Q505 422 535 458T592 529T638 592T669 642Q680 661 680 681Q680 699 669 728Q701 709 717 693T746 647Q744 623 733 599T693 542T614 459T483 337Q502 247 520
185T557 84T598 24T647 -4Z" />
<glyph unicode="Y" glyph-name="Y" horiz-adv-x="613" d="M470 345Q545 427 604 519T715 726Q741 723 765 712T803 687Q748 621 704 567T622 466T554 375T492 287Q477 236 464 184T441 85T426 -3T420 -73Q409 -73 385 -69T336 -58T291 -46T266 -36Q282 -9 297
30T328 113T357 201T383 284Q358 362 335 430T289 554T247 650T209 711Q219 715 239 719T284 727T334 733T380 737Q380 712 384 676T396 599T414 516T434 439T453 379T470 345Z" />
<glyph unicode="Z" glyph-name="Z" horiz-adv-x="698" d="M272 564Q268 578 266 596T263 651Q263 674 264 697T273 738Q322 729 377 722T491 708T607 699T719 695Q793 695 838 701Q854 679 858 649T862 593Q747 546 644 474T457 322T312 166T221 32Q239 35 258
37T299 42T348 46T410 50Q459 53 496 60T559 76T600 92T623 105Q627 96 632 78T642 39T650 -5T653 -47Q653 -57 653 -60T651 -68Q606 -65 561 -61T470 -57Q410 -57 346 -63T222 -83T113 -118T33 -168Q25 -142 17 -124T8 -79Q8 -53 18 -38T47 -12Q107 74 183 158T347
322T527 472T713 603Q653 606 586 606Q539 606 493 604T406 598T331 585T272 564Z" />
<glyph unicode="[" glyph-name="bracketleft" horiz-adv-x="386" d="M522 791Q565 791 577 778T590 745Q590 740 589 737T586 726Q556 729 524 729Q515 729 502 729T475 729T447 727T422 725Q418 708 407 669T379 577T341 462T294 336Q265 262 238 192T191 64T157
-35T144 -92Q159 -88 180 -83T224 -72T270 -64T311 -60Q346 -60 358 -73T370 -105Q370 -110 369 -113T366 -124Q336 -121 306 -121Q263 -121 219 -126T126 -140Q103 -132 84 -107T45 -49Q53 -31 72 16T114 127T164 260T212 393Q248 494 270 561T305 671T323 736T331
770Q356 775 384 779T439 785T487 789T522 791Z" />
<glyph unicode="\" glyph-name="backslash" horiz-adv-x="660" d="M265 743Q268 751 282 761T314 780T350 795T381 801Q395 704 413 608T451 420T492 245T533 93T570 -29T602 -112Q598 -129 585 -142T560 -158Q527 -103 491 -10T416 203T340 460T265 743Z" />
<glyph unicode="]" glyph-name="bracketright" horiz-adv-x="385" d="M75 -140Q32 -140 20 -127T7 -94Q7 -89 8 -86T11 -75Q41 -78 73 -78Q82 -78 95 -78T122 -78T150 -76T175 -74Q179 -57 190 -18T218 74T256 189T303 315Q332 389 359 459T406 587T440 686T453
743Q438 739 417 734T373 723T327 715T286 711Q251 711 239 724T227 756Q227 761 228 764T231 775Q261 772 291 772Q334 772 378 777T471 791Q494 783 513 758T552 700Q544 682 525 635T483 524T433 391T385 258Q349 157 327 90T292 -20T274 -85T266 -119Q240 -124
212 -128T158 -134T110 -138T75 -140Z" />
<glyph unicode="^" glyph-name="asciicircum" horiz-adv-x="361" d="M259 713Q263 654 268 612T280 538T297 486T321 449Q321 448 316 448H312Q283 448 253 487T199 587Q173 548 145 522T94 496Q79 496 66 503T40 522Q78 544 111 581T174 675L170 700Q190 714
231 714Q243 714 248 714T259 713Z" />
<glyph unicode="_" glyph-name="underscore" horiz-adv-x="569" d="M125 -102Q87 -102 64 -85T41 -36Q41 -31 43 -21T48 -5Q69 -8 88 -9T136 -10Q199 -10 254 -7T355 0T432 7T481 10Q504 10 522 -13T549 -79Q518 -76 499 -75T464 -74Q410 -74 365 -78T279 -88T200
-97T125 -102Z" />
<glyph unicode="`" glyph-name="grave" horiz-adv-x="285" d="M78 729Q99 694 122 664T170 610T219 569T265 544Q242 525 210 525Q194 525 177 529T138 544T87 572T20 615Q20 629 25 646T38 679T57 709T78 729Z" />
<glyph unicode="a" glyph-name="a" horiz-adv-x="470" d="M442 404Q452 404 465 401T490 392T508 380T516 369Q496 327 479 285T450 203T432 130T425 71Q425 43 431 25T451 -2Q439 -10 420 -15T386 -20Q332 -20 332 54Q332 111 370 210Q350 164 324 124T271 52T217
2T166 -22Q129 -20 106 13T83 99Q83 155 107 217T168 332T250 420T335 458Q345 455 357 446T381 425T401 401T410 379Q370 373 328 340T251 261T194 161T172 62Q172 43 186 38Q215 44 253 87T345 222Q355 240 367 262T393 308T418 356T442 404Z" />
<glyph unicode="b" glyph-name="b" horiz-adv-x="472" d="M189 -7Q235 24 279 72T359 177T420 295T454 412Q454 424 441 428Q427 428 403 404T349 341T289 256T233 163T191 76T171 10Q161 10 154 30Q152 35 147 40T131 54Q126 58 121 63T114 73Q110 81 110 99Q110
158 125 232T164 383T222 534T290 671T362 776T430 833Q440 830 454 823T482 807T508 789T527 773Q417 684 337 545T205 215Q233 267 268 315T337 401T403 460T456 482Q472 478 487 468T514 444T534 413T544 378Q543 336 530 289T494 195T443 107T383 34T320 -17T260
-36Q248 -36 236 -34T213 -27T196 -17T189 -7Z" />
<glyph unicode="c" glyph-name="c" horiz-adv-x="420" d="M103 176Q103 233 126 286T188 381T276 448T379 474Q431 474 459 448T487 374Q487 351 481 330T464 291T439 264T411 253Q399 253 387 260T366 280Q433 341 433 391Q433 420 410 420Q390 420 360 401T302
351Q259 303 237 245T214 122Q214 41 250 25Q265 27 285 34T328 52T375 79T423 111Q427 108 430 102T433 91Q416 70 394 50T348 14T302 -14T262 -29Q229 -26 200 -9T150 37T116 101T103 176Z" />
<glyph unicode="d" glyph-name="d" horiz-adv-x="433" d="M315 467Q335 467 361 455T407 424Q402 464 395 499T373 573T334 656T274 759Q277 768 287 780T311 802T339 821T367 831Q395 800 420 754T464 654T493 543T504 434Q504 382 493 327T461 220T413 120T355
36T289 -24T221 -54Q152 -46 116 -10T79 91Q79 125 89 165T117 244T158 321T208 389T262 440T315 467ZM213 -14Q248 -2 283 39T346 135T391 254T409 377Q409 394 409 398T408 406Q384 396 357 372T303 317T252 248T209 174T179 103T168 43Q168 -7 213 -14Z" />
<glyph unicode="e" glyph-name="e" horiz-adv-x="404" d="M455 414Q451 352 433 308T382 230T300 169T188 117Q188 111 188 105T187 91Q187 78 189 64T196 38T210 19T233 11Q260 11 286 23T335 52T379 90T416 128Q426 119 433 111Q388 51 335 12T233 -39Q164 -31
126 11T87 114Q87 155 98 197T130 279T178 354T237 415T302 456T369 471Q415 465 455 414ZM386 381Q359 377 330 359T276 311T229 241T196 155Q276 195 329 253T386 381Z" />
<glyph unicode="f" glyph-name="f" horiz-adv-x="342" d="M152 -289Q127 -279 122 -251Q118 -224 88 -207Q96 -156 106 -104T131 14T170 169T230 384Q197 384 178 383T141 379Q137 383 135 390T132 403Q142 407 173 413T241 425Q265 501 296 561T363 665T439 731T520
754Q532 754 543 753T560 751Q569 758 584 763T610 769Q622 769 641 756Q633 742 624 718T609 671Q584 597 556 575Q545 575 544 604Q543 625 538 645Q534 654 533 661T531 679Q531 685 532 693T536 722Q519 722 499 701T456 642T410 550T366 433L450 436Q455 431
458 414T463 377L353 383Q315 270 282 167T223 -23T179 -178T152 -289Z" />
<glyph unicode="g" glyph-name="g" horiz-adv-x="450" d="M-105 -298Q-105 -292 -101 -287T-92 -277Q-80 -288 -72 -294T-56 -304T-40 -309T-21 -310Q31 -310 78 -283T166 -203T242 -76T302 94Q290 82 273 68T236 40T199 16T167 0Q150 3 136 14T110 43T93 81T87
127Q87 166 101 207T140 287T196 362T265 423T339 464T413 480Q448 480 465 466T491 416Q480 422 463 422Q439 422 408 403T344 354T279 284T223 203T183 123T167 53Q167 46 168 45T171 43Q180 43 195 53T230 78T271 114T311 156Q354 204 389 263T446 379Q473 377
494 370T523 355Q489 277 469 224T433 130Q406 58 383 -1T335 -111T282 -205T217 -289Q200 -308 179 -322T135 -347T91 -362T51 -367Q27 -367 2 -362T-44 -347T-82 -325T-105 -298Z" />
<glyph unicode="h" glyph-name="h" horiz-adv-x="517" d="M96 17Q96 52 103 99T123 201T155 314T197 432Q217 485 243 539T301 645T365 744T433 830Q449 830 467 826T503 816T535 800T559 782Q484 705 424 627T329 479Q310 441 295 408T266 343T243 278T223 209Q415
454 508 454Q534 454 564 437T617 391Q586 357 553 309T493 213T448 123T430 61Q430 51 433 48T446 44Q461 44 470 48T481 52Q486 44 487 41T488 36Q488 32 476 25T448 10T415 -4T391 -10Q381 -10 371 -5T354 10T342 30T337 53Q337 68 345 97T369 166T405 253T450
349Q450 353 446 353Q443 353 431 345T407 329Q371 302 335 263T264 176T199 77T146 -29Q143 -36 137 -42T127 -48Q124 -48 119 -41T109 -24T100 -2T96 17Z" />
<glyph unicode="i" glyph-name="i" horiz-adv-x="236" d="M98 67Q98 76 99 89T105 125T115 180T132 257Q134 267 141 289T159 335T187 383T227 417Q244 413 272 397T320 351Q297 325 282 299T254 245T231 187T207 124Q196 96 187 67T177 15Q177 -3 177 -10T171
-18Q167 -18 155 -13T131 2T108 29T98 67ZM289 501Q289 507 292 519Q287 524 284 534T280 552Q280 561 282 576T289 610T299 647T311 683Q323 683 340 677T376 660T409 637T432 613Q421 602 403 583T368 542T337 501T319 474Q307 476 298 484T289 501Z" />
<glyph unicode="j" glyph-name="j" horiz-adv-x="236" d="M119 187Q156 335 191 403T266 472Q294 472 333 445Q301 388 284 351T258 282Q241 222 222 158T185 34T151 -72T126 -145Q104 -204 83 -245T38 -312T-10 -350T-66 -362Q-88 -362 -109 -358T-150 -346T-184
-327T-208 -304Q-207 -297 -202 -291T-191 -283Q-174 -301 -156 -309T-111 -317Q-79 -317 -55 -298T-5 -225T49 -72T119 187ZM282 551Q282 556 285 568Q273 580 273 602Q273 611 275 627T282 661T292 699T304 732Q316 732 333 726T369 709T402 686T425 662Q413
651 395 631T360 590T329 550T312 523Q300 525 291 533T282 551Z" />
<glyph unicode="k" glyph-name="k" horiz-adv-x="516" d="M99 94Q99 130 117 194T166 334T234 491T310 642T384 763T445 832Q459 831 475 820T506 794T529 761T539 730Q494 694 448 638T359 514T282 371T222 222Q254 277 289 322T359 399T427 448T491 467Q535
435 535 382Q535 350 522 318T488 258T439 211T381 185Q391 150 406 114T443 44T492 -19T555 -68Q550 -78 540 -88T516 -105T486 -117T453 -122Q426 -122 403 -95T360 -17Q345 24 331 81T306 200Q320 209 341 226T385 267Q473 352 473 414Q473 422 462 422Q442
421 415 403T358 353T296 278T235 185Q223 165 213 139T196 86T184 31T180 -19Q180 -33 183 -42Q152 -39 145 -26Q137 -14 132 -7T120 6Q111 13 105 36T99 94Z" />
<glyph unicode="l" glyph-name="l" horiz-adv-x="236" d="M96 64Q96 108 117 187T176 373Q238 542 292 654T399 830Q411 828 428 820T463 803T493 783T511 767Q433 675 374 569T266 326Q224 208 202 114T180 -44Q180 -61 180 -65T181 -73Q167 -71 157 -66T144
-54Q142 -49 133 -40T117 -25Q108 -19 102 6T96 64Z" />
<glyph unicode="m" glyph-name="m" horiz-adv-x="765" d="M675 307Q659 306 636 287T587 237T532 169T477 96T427 27T388 -24Q366 -15 350 2T327 46Q332 77 341 110T364 180T400 255T453 339Q438 338 412 318T356 265T294 192T234 112Q197 60 173 21T137 -25Q111
-6 101 16T86 65Q87 89 93 125T112 199Q135 272 171 344T242 476Q270 470 292 457T340 419Q330 388 309 354T265 281T223 203T198 122Q226 162 264 214T343 312T424 390T496 422Q508 422 522 418T548 408T568 397T577 388Q572 368 554 334T514 261T475 188T454
131Q503 198 546 252T627 346T697 406T759 427Q779 427 796 417T821 386Q812 356 792 314T750 226T713 134T696 53Q696 32 702 26T719 19Q731 19 741 23T757 28Q763 24 764 18T765 7Q745 -9 724 -19T677 -30Q653 -30 638 -22T612 0T598 32T594 71Q594 105 603 138T624
202T651 259T675 307Z" />
<glyph unicode="n" glyph-name="n" horiz-adv-x="540" d="M259 485Q285 477 308 450T342 389Q331 362 308 324T262 247T221 172T199 113Q215 130 234 152T272 197T307 238T332 266Q351 286 377 312T431 362T489 402T542 419Q568 419 585 402T613 365Q613 363 606
360T584 340Q570 322 553 291T519 223T491 148T480 79Q480 54 486 47T505 40Q516 40 528 45T547 50Q551 48 553 42T556 30Q548 23 537 16T514 3T491 -7T470 -11Q441 -11 423 -3T394 20T379 53T375 95Q375 107 377 122T385 157T402 206T430 275Q428 275 403 261T349
218Q302 173 265 129T188 31Q166 0 150 -21T121 -50Q100 -38 90 -17T75 28Q75 47 80 76T95 140T119 215T150 293Q188 381 219 431T259 485Z" />
<glyph unicode="o" glyph-name="o" horiz-adv-x="441" d="M215 -35Q158 -29 124 15T90 127Q90 167 102 210T136 293T188 370T253 432Q308 473 356 473Q388 456 419 402Q424 402 428 402T437 403Q490 403 490 309Q490 246 470 190T413 87T326 10T215 -35ZM266 280Q249
257 234 230T208 176T191 123T185 77Q185 53 193 31T211 6Q256 16 293 43T358 112T401 205T417 316Q417 342 414 357T404 383Q360 370 326 341T266 280Z" />
<glyph unicode="p" glyph-name="p" horiz-adv-x="498" d="M24 -331Q10 -327 8 -301Q4 -288 3 -270T1 -229Q1 -208 8 -172T27 -89T58 10T98 119Q125 188 145 238T178 326T200 387T214 428Q218 440 226 457T244 491T266 524T286 548Q321 543 352 530T390 505Q376
492 358 465T323 405T292 338T271 278Q281 295 297 315T346 370Q383 408 415 428T472 449Q510 449 534 428T559 374Q559 302 535 232T466 104Q449 82 426 62T378 27T329 2T286 -7Q268 -7 255 0T236 19Q275 42 312 83T380 177T435 293T471 419Q433 399 403 376T342
314Q306 270 285 243T251 197T229 162T210 121Q196 89 178 37T140 -81T101 -219T63 -366Q52 -364 44 -350Q36 -341 33 -337T24 -331Z" />
<glyph unicode="q" glyph-name="q" horiz-adv-x="452" d="M497 444Q513 444 530 437T556 418Q519 343 494 291T450 200T417 129T389 65Q365 9 344 -48T307 -161T278 -268T259 -363Q255 -367 241 -367Q235 -367 230 -364T223 -357Q221 -352 216 -347T202 -340Q194
-338 189 -331T181 -314Q192 -138 286 84Q251 49 226 29T187 6Q173 6 157 20T126 56T102 101T92 146Q92 172 106 215T141 302Q221 461 379 490Q393 488 407 482T434 465T454 443T465 420Q467 426 479 435T497 444ZM318 177Q351 222 376 263T418 336Q438 373 453
406Q450 409 437 412T412 415Q386 415 351 389T287 324Q237 255 211 187T184 61Q184 54 193 54Q229 80 259 109T318 177Z" />
<glyph unicode="r" glyph-name="r" horiz-adv-x="403" d="M73 20Q78 49 90 96T120 197T156 305T193 402Q206 433 216 450T238 480Q252 478 267 473T296 461T321 447T338 432Q311 400 291 359T249 254Q303 302 344 346T422 444Q428 449 443 449Q457 449 470 445T488
432Q470 384 470 337Q470 293 483 271Q482 265 470 248T442 216Q415 230 394 254T363 308Q316 275 283 244T227 174T187 85T155 -34Q146 -33 134 -28T109 -14T86 3T73 20Z" />
<glyph unicode="s" glyph-name="s" horiz-adv-x="346" d="M442 398Q441 379 436 359T422 322T405 294T388 283Q377 284 375 298Q375 301 377 307T383 322T388 338T391 352Q391 366 385 375T367 385Q327 385 306 335T285 188Q285 178 286 176Q307 177 323 177T356
178Q357 176 357 170Q357 161 353 157Q330 152 317 149T296 142T288 136T286 126Q286 118 286 110T287 90Q287 6 242 -45T115 -104Q101 -103 86 -96T58 -78T34 -54T20 -26Q20 12 36 46T79 107T144 150T226 170Q226 195 221 219T211 265T200 309T195 352Q195 379
206 405T235 454T277 493T327 515Q338 512 356 498T393 465T425 429T442 398ZM112 -58Q136 -48 157 -29T195 14T220 65T230 118Q210 115 186 100T141 63T106 18T92 -22Q92 -44 112 -58Z" />
<glyph unicode="t" glyph-name="t" horiz-adv-x="352" d="M156 383Q151 389 147 408T143 442Q169 440 193 439T237 436Q252 466 269 495T303 549T334 591T357 613Q367 613 382 610T414 601T443 589T461 577Q431 539 410 507T363 432Q383 432 403 433T445 436Q450
431 453 424T456 408Q407 390 337 388Q312 340 293 293T260 201T239 118T231 48Q231 4 264 -1Q294 3 321 14T369 42Q375 33 376 27Q370 18 356 6T324 -17T291 -37T267 -46Q242 -45 217 -35T172 -10T138 23T125 60Q125 84 131 120T150 200T178 290T213 383H156Z"
/>
<glyph unicode="u" glyph-name="u" horiz-adv-x="494" d="M369 22Q350 38 344 62T337 103Q337 124 342 139Q338 139 324 123T294 85T261 42T237 11Q224 -3 213 -11T194 -20Q178 -19 161 -14T128 2T101 26T85 58Q85 86 86 104T93 143Q102 181 119 229T160 323T211
410T272 474Q281 474 293 473T317 467T341 458T361 443Q352 433 316 376T234 212Q229 201 222 180T208 136T197 91T192 56Q192 48 194 44T199 38Q214 44 237 71T301 154Q311 168 324 186T352 224T378 267T399 311Q403 323 409 339T425 374T447 410T477 445Q490
445 505 442T533 435T557 425T572 413Q554 369 532 326T491 242T459 159T446 79Q446 58 449 43T457 17T464 -1T468 -13Q468 -14 466 -16Q465 -17 464 -17Q457 -17 446 -14T422 -6T395 7T369 22Z" />
<glyph unicode="v" glyph-name="v" horiz-adv-x="448" d="M152 354Q152 372 154 388T165 415T187 433T224 440Q238 440 255 437T281 426Q277 409 275 396T271 368T268 331T266 275Q264 207 260 154T239 47Q239 43 242 43Q257 54 276 75T316 122T358 179T397 238Q421
280 450 343T498 478Q504 478 513 476T532 470T549 462T560 455Q558 412 540 367T495 280T440 201T387 137Q339 81 291 37T175 -48Q149 -38 134 -22T119 13Q119 25 124 40T137 80T149 142T155 236Q155 269 154 302T152 354Z" />
<glyph unicode="w" glyph-name="w" horiz-adv-x="635" d="M106 41Q106 61 110 97T122 175T139 261T159 340Q172 387 199 412T268 438Q290 438 311 431T337 413Q308 389 291 354T263 278T247 195T235 115Q268 159 297 194T350 251Q381 280 392 299T411 342Q417
360 425 384T454 428Q458 429 471 429Q481 429 492 428T514 424T531 417T539 407Q523 386 509 342T484 244T464 139T448 50Q452 52 466 66T497 101T534 147T569 196Q588 225 600 250T622 305T640 369T657 454Q663 462 683 467T721 473Q736 473 743 468Q738 412
725 368T688 283T631 200T551 109Q532 89 510 65T466 21T426 -14T397 -28Q374 -28 359 -10T344 36Q344 65 346 86T355 132Q361 154 364 169T370 195T374 214T376 230Q368 226 355 214T328 185T300 151T277 122Q258 96 244 76T218 38T193 2T165 -38Q133 -28 120
-8T106 41Z" />
<glyph unicode="x" glyph-name="x" horiz-adv-x="426" d="M408 6Q397 -11 374 -21T329 -34Q312 -14 291 20T251 101Q200 55 149 18T54 -46Q43 -44 36 -34T28 -8Q48 3 75 21T131 60T186 105T232 151Q215 191 201 233T176 315T159 387T153 440Q153 454 156 458T173
463Q183 463 197 461T227 456T257 450T283 442Q281 431 281 423T281 400Q281 361 287 321T309 233Q350 280 385 337T456 475Q481 470 499 461T522 440Q511 394 460 324T330 175Q344 137 364 95T408 6Z" />
<glyph unicode="y" glyph-name="y" horiz-adv-x="489" d="M473 155Q450 82 427 22T378 -88T322 -181T256 -262Q210 -310 161 -335T63 -361Q38 -361 14 -356T-32 -341T-70 -319T-94 -292Q-94 -280 -80 -271Q-68 -282 -60 -288T-45 -298T-29 -303T-9 -304Q48 -304
102 -271T205 -176T294 -27T362 169Q349 149 330 120T288 63T241 11T193 -20Q177 -19 160 -14T127 2T99 26T83 58Q83 87 85 104T92 143Q101 181 118 229T159 323T211 410T271 474Q279 474 291 473T316 467T341 458T362 443Q351 433 314 376T232 212Q227 201 220
180T207 136T195 91T190 56Q190 48 192 44T197 38Q215 41 245 67T313 150Q337 186 357 221T396 293T437 367T482 445Q495 445 510 442T539 435T563 425T579 413Q548 347 521 284T473 155Z" />
<glyph unicode="z" glyph-name="z" horiz-adv-x="472" d="M61 14Q61 30 89 65T163 146T270 242T396 340Q354 349 330 353T290 357Q261 357 238 349T193 323Q147 363 147 415Q147 431 148 434Q165 451 188 460T238 469Q266 469 295 460T352 441T404 421T448 412Q459
412 472 415T495 423Q504 416 511 395T519 354Q488 342 445 312T356 243T269 160T198 77Q219 68 255 68Q278 68 302 72T348 83T390 99T422 120Q469 90 469 32Q469 24 469 19T467 7Q421 -22 367 -22Q340 -22 313 -17T261 -5T213 6T171 12Q123 12 93 -33Q80 -28 72
-15T61 14Z" />
<glyph unicode="{" glyph-name="braceleft" horiz-adv-x="335" d="M448 812Q465 812 480 804T518 772Q487 757 467 736T434 688T413 632T397 570Q389 537 380 504T353 440T310 387T243 349Q278 328 298 297T318 222Q318 183 303 140T271 56T238 -20T223 -79Q223
-108 246 -122T310 -146L302 -162Q277 -158 248 -151T193 -129T151 -94T134 -41Q134 -11 148 25T180 101T211 179T226 254Q226 300 201 316T136 332Q129 336 126 341T121 352L156 368Q199 387 221 419T255 492T277 577T304 669Q316 700 331 726T364 771T403 801T448
812Z" />
<glyph unicode="|" glyph-name="bar" horiz-adv-x="276" d="M98 -88Q99 -28 113 53T149 225T199 407T258 581T320 728T378 830Q390 828 407 820T442 803T472 783T490 767Q448 721 411 654T343 509T285 345T239 175T204 12T180 -130L98 -88Z" />
<glyph unicode="}" glyph-name="braceright" horiz-adv-x="335" d="M98 -162Q81 -162 66 -154T28 -122Q59 -107 79 -86T112 -38T133 18T149 80Q157 113 166 146T193 210T236 263T303 301Q268 322 248 353T228 428Q228 467 243 510T275 594T308 670T323 729Q323
758 300 772T236 796L244 812Q269 808 298 801T353 779T395 744T412 691Q412 661 398 625T366 549T335 471T320 396Q320 350 345 334T410 318Q417 314 420 309T425 298L390 282Q347 262 325 230T291 158T269 73T242 -19Q219 -81 182 -121T98 -162Z" />
<glyph unicode="~" glyph-name="asciitilde" horiz-adv-x="441" d="M138 269Q161 283 182 287T227 291Q256 291 284 287T339 282Q364 282 388 285T430 300Q444 286 453 264T467 221Q447 205 426 199T381 192Q352 192 331 198T289 211T244 225T182 231Q174 231
166 231T147 230Q142 237 141 247T138 269Z" />
<glyph unicode="&#xa0;" glyph-name="uni00A0" horiz-adv-x="238" />
<glyph unicode="&#xa1;" glyph-name="exclamdown" horiz-adv-x="274" d="M290 254Q290 227 276 176T238 62T186 -67T128 -192T71 -292T24 -349Q8 -346 -10 -335T-45 -309T-73 -278T-87 -250Q-36 -208 14 -146T106 -7T181 155T229 332Q241 329 252 325T272 312T285
290T290 254ZM301 369Q289 369 278 374T259 387T245 403T240 417Q240 429 243 448T252 484T267 514T287 527Q315 527 343 508T386 464Q374 451 365 435T347 404T327 379T301 369Z" />
<glyph unicode="&#xa2;" glyph-name="cent" horiz-adv-x="505" d="M554 702Q546 676 539 653T524 607Q565 599 592 574T620 509Q620 486 614 465T597 426T572 399T544 388Q533 388 521 395T499 415Q566 476 566 526Q566 546 550 554T510 563Q489 495 471 439T436
334T404 245T373 167Q403 178 441 198T516 246Q520 243 523 237T526 226Q512 208 490 191T443 158T394 131T349 112Q332 74 313 38T272 -35Q257 -32 254 -20Q265 2 279 34T308 108Q270 114 242 132T195 178T166 239T156 311Q156 364 176 415T235 507T329 575T456
608Q475 687 485 748Q506 742 522 732T554 702ZM267 257Q267 183 328 164Q358 250 388 351T442 549Q399 532 366 499T311 426T278 341T267 257Z" />
<glyph unicode="&#xa3;" glyph-name="sterling" horiz-adv-x="648" d="M249 286Q209 286 193 301T176 345Q176 361 180 374Q191 372 199 371T215 370T232 369T257 368Q269 368 281 368T306 369L319 418Q339 493 362 550T417 647T494 709T602 736Q654 716 681 689T708
620Q708 590 693 555T646 473Q630 478 614 494T591 530Q632 558 648 583T664 633Q664 650 656 666T618 695Q579 689 551 659T502 585T463 487T427 378Q464 382 490 385T527 388Q547 388 561 372T584 310Q559 313 543 314T512 315Q483 315 456 313T402 306Q374 233
349 189T302 121T263 87T233 73Q273 73 321 64T418 55Q463 55 507 68T592 118Q603 101 611 76T619 24Q619 8 616 -5Q571 -34 531 -45T451 -57Q410 -57 372 -48T297 -27T225 -7T154 3Q135 3 120 -2T98 -24Q87 -24 76 -5T63 39Q110 55 144 79T204 136T248 206T281
288Q273 287 265 287T249 286Z" />
<glyph unicode="&#xa4;" glyph-name="currency" horiz-adv-x="619" d="M600 440Q600 376 576 321T513 224Q544 180 567 155T617 113Q614 101 607 93T588 84Q574 96 562 107T537 131T512 159T484 195Q451 166 416 150T351 133Q320 133 294 152Q265 130 235 110T186
78Q175 80 169 89T162 112Q179 120 208 138T267 180Q255 197 248 221T240 276Q240 321 258 373T309 471Q289 507 271 543T236 618Q248 641 283 641Q287 641 291 641T300 639Q308 588 343 513Q372 545 407 565T478 585Q513 585 540 567T583 516Q601 543 614 568T633
613Q679 613 693 581Q670 549 647 517T599 453Q600 450 600 447T600 440ZM505 509Q467 509 435 483T378 417T339 327T325 231Q325 196 336 181T363 165Q382 165 403 180T445 219T483 275T516 339T538 402T546 457Q546 509 505 509Z" />
<glyph unicode="&#xa5;" glyph-name="yen" horiz-adv-x="681" d="M342 250Q307 250 292 266T276 309Q276 325 280 338Q297 336 312 334T351 332Q365 332 379 332T408 333Q385 402 364 462T324 571T286 656T250 711Q260 715 280 719T325 727T375 733T421 737Q421
712 425 676T437 599T455 516T475 439T494 379T511 345Q586 427 645 519T756 726Q782 723 806 712T844 687Q798 632 760 586T689 499T628 421T574 347Q593 349 606 350T629 352Q648 352 662 334T684 274Q659 277 643 278T615 279Q592 279 571 278T529 274Q522 251
516 228T504 181Q531 184 550 186T581 189Q600 189 614 171T636 111Q611 114 595 115T567 116Q545 116 526 115T487 111Q475 55 468 8T461 -73Q450 -73 426 -69T377 -58T332 -46T307 -36Q321 -12 334 21T362 92Q345 90 328 89T294 87Q259 87 244 103T228 146Q228
162 232 175Q249 173 264 171T303 169Q326 169 347 169T388 171Q396 193 402 214T415 256Q397 254 379 252T342 250Z" />
<glyph unicode="&#xa6;" glyph-name="brokenbar" horiz-adv-x="268" d="M212 435Q228 499 247 559T287 671T328 763T368 830Q380 828 399 820T436 803T470 783T489 767Q460 735 433 693T382 603T336 500T295 388L212 435ZM155 334Q165 334 181 329T216 317T250
300T277 283Q230 169 207 70T179 -130L99 -91Q99 -65 101 -29T106 47T114 130T125 211T138 282T155 334Z" />
<glyph unicode="&#xa7;" glyph-name="section" horiz-adv-x="415" d="M392 629Q424 627 453 609T502 565Q475 561 449 550T403 522T369 484T356 441Q356 417 370 398T401 360T432 321T446 276Q446 253 433 232T399 194T350 165T294 148Q289 153 285 160T281 176Q290
183 304 193T330 217T352 247T362 283Q362 303 352 318T325 345T290 369T255 393T229 423T218 463Q218 495 237 522T284 571T342 606T392 629ZM252 347Q267 343 287 331T325 301Q310 295 293 284T263 259T240 229T231 195Q231 168 252 149T299 111T346 72T368 21Q368
-7 348 -35T297 -87T227 -124T153 -139Q116 -139 101 -125T86 -90Q86 -73 95 -56T121 -25Q118 -36 117 -44T116 -59Q116 -81 125 -89T149 -97Q168 -97 190 -85T230 -54T261 -15T273 24Q273 41 261 52T232 71T193 88T155 109T125 138T113 184Q113 211 124 236T155
284T199 322T252 347Z" />
<glyph unicode="&#xa8;" glyph-name="dieresis" horiz-adv-x="305" d="M20 605Q20 620 22 636T30 666T47 689T78 700Q91 698 113 686T146 656Q146 656 136 640T114 605T89 568T71 546Q50 555 38 571T20 605ZM151 583Q151 599 153 615T161 645T178 668T207 678Q213
678 222 674T242 664T261 650T276 634Q276 633 267 617T244 582T218 546T199 526Q179 534 168 550T151 583Z" />
<glyph unicode="&#xa9;" glyph-name="copyright" horiz-adv-x="667" d="M536 467Q572 467 590 445T608 396Q608 370 590 348T531 325Q533 328 540 336T554 353T568 373T574 391Q574 399 570 404T551 411Q529 406 506 389T465 350T435 304T423 264Q423 236 453
236Q465 236 477 240T501 250T524 261T546 267Q552 267 554 258Q553 255 540 246T508 227T468 207T431 195Q392 200 373 219T354 268Q354 297 370 331T411 396T470 446T536 467ZM679 248Q655 205 622 168T546 103T455 59T351 43Q300 43 262 57T198 95T159 153T146
224Q146 265 159 309T196 397T252 478T322 546T401 593T485 611Q528 611 571 593T648 543T705 468T727 376Q727 352 720 325T690 265L688 272Q696 291 699 315T703 356Q703 395 687 430T645 493T589 536T530 552Q502 552 471 536T408 494T349 434T299 362T265 288T252
220Q252 171 286 140T394 109Q430 109 467 117T542 143T612 188T674 252L679 248Z" />
<glyph unicode="&#xaa;" glyph-name="ordfeminine" horiz-adv-x="371" d="M469 682Q476 682 485 680T503 674T517 667T522 660Q493 608 475 558T457 475Q457 439 476 430Q468 425 454 422T429 419Q390 419 390 465Q390 501 417 561Q401 533 382 508T342 464T301
432T262 418Q236 419 220 440T203 493Q203 527 220 565T265 637T325 691T388 715Q395 713 404 708T422 695T435 680T442 666Q412 662 381 642T325 593T283 531T267 470Q267 457 277 455Q298 459 328 485T399 569Q415 592 434 622T469 682Z" />
<glyph unicode="&#xab;" glyph-name="guillemotleft" horiz-adv-x="1074" d="M470 52Q398 68 337 87T216 141Q193 155 174 171T137 214Q129 226 123 242T115 278Q125 289 145 297T189 313T241 326T292 339Q329 349 359 361T421 389T488 425T570 475Q584 469 597
457T622 432T639 404T646 380Q646 362 636 346T615 317Q608 330 593 330Q582 330 568 327T543 322Q511 314 466 300T375 271T287 241T221 219Q225 211 231 204T248 189T276 171T319 147Q330 141 347 134T384 119T423 105T458 93Q464 91 477 88T496 82Q495 73 487
64T470 52ZM980 52Q908 68 847 87T726 141Q703 155 684 171T647 214Q639 226 633 242T625 278Q635 289 655 297T699 313T751 326T802 339Q839 349 869 361T931 389T998 425T1080 475Q1094 469 1107 457T1132 432T1149 404T1156 380Q1156 362 1146 346T1125 317Q1118
330 1103 330Q1092 330 1078 327T1053 322Q1021 314 976 300T885 271T797 241T731 219Q735 211 741 204T758 189T786 171T829 147Q840 141 857 134T894 119T933 105T968 93Q974 91 987 88T1006 82Q1005 73 997 64T980 52Z" />
<glyph unicode="&#xac;" glyph-name="logicalnot" horiz-adv-x="602" d="M581 328Q581 311 584 290T590 247T597 201T600 156Q600 122 589 100T543 77Q538 77 528 79T513 83Q520 118 520 161Q520 196 516 231T504 300Q461 300 421 296T344 285T276 275T220 270Q186
270 167 284T148 338Q148 343 150 353T154 368Q171 365 186 365T225 364Q302 364 357 366T454 373T527 384T586 397Q583 372 582 356T581 328Z" />
<glyph unicode="&#xad;" glyph-name="uni00AD" horiz-adv-x="526" d="M204 186Q173 186 155 203T136 252Q136 257 138 267T142 282Q159 279 174 279T213 278Q264 278 308 281T389 288T451 295T491 298Q510 298 524 275T546 209Q521 212 505 213T477 214Q434 214
397 210T327 200T264 191T204 186Z" />
<glyph unicode="&#xae;" glyph-name="registered" horiz-adv-x="666" d="M679 248Q655 205 621 168T545 103T454 59T350 43Q299 43 261 57T197 95T159 153T146 224Q146 265 159 309T196 397T252 478T322 546T401 593T485 611Q528 611 571 593T648 543T705 468T727
376Q727 352 720 325T689 265L687 272Q696 291 699 315T703 356Q703 395 687 430T645 493T589 536T530 552Q502 552 470 536T407 494T348 434T299 362T264 288T251 220Q251 171 286 140T394 109Q430 109 467 117T542 143T612 188T674 252L679 248ZM430 277Q412
261 398 241T378 195Q361 195 347 201T321 226Q345 245 367 269T409 319T447 369T481 414Q464 412 450 406T426 390Q415 394 405 405T393 431Q411 446 436 453T490 461Q532 461 568 443T618 387Q616 358 601 340T565 310T519 295T474 291Q488 275 507 265T549 255Q560
255 571 258T593 269Q593 244 578 227T532 209Q510 209 498 217T477 237T458 259T430 277ZM466 316Q467 315 471 315Q483 315 500 316T534 323T566 339T589 369Q587 380 576 391T548 410Q537 400 525 388T501 362T480 337T466 316Z" />
<glyph unicode="&#xaf;" glyph-name="overscore" horiz-adv-x="346" d="M22 628Q67 625 113 625Q219 625 308 645Q315 632 320 606T326 558Q252 549 172 549Q79 549 20 562Q21 572 21 586T22 628Z" />
<glyph unicode="&#xb0;" glyph-name="degree" horiz-adv-x="384" d="M327 403Q271 403 241 431T211 513Q211 554 226 593T266 663T322 713T387 732Q416 732 442 720T489 688T522 641T534 585Q534 549 517 516T472 458T406 418T327 403ZM475 595Q475 631 454 653T398
676Q374 676 352 663T313 629T285 579T275 520Q275 453 337 453Q364 453 389 464T433 495T463 541T475 595Z" />
<glyph unicode="&#xb1;" glyph-name="plusminus" horiz-adv-x="617" d="M376 169Q356 172 335 185T293 216Q300 240 307 264T322 311Q302 309 283 308T245 306Q209 306 188 323T166 372Q166 377 168 387T173 403Q192 400 209 399T255 398Q281 398 306 398T356
400Q379 457 402 501T449 571Q461 569 480 561T517 544T551 524T570 508Q549 485 530 461T493 411Q522 413 543 415T578 418Q600 418 617 395T642 329Q613 332 595 333T562 334Q530 334 501 332T444 327Q427 294 410 255T376 169ZM205 46Q169 46 148 63T126 112Q126
117 128 127T133 143Q152 140 169 139T215 138Q274 138 326 141T420 148T492 155T538 158Q560 158 577 135T602 69Q573 72 555 73T522 74Q472 74 429 70T348 60T275 51T205 46Z" />
<glyph unicode="&#xb2;" glyph-name="twosuperior" horiz-adv-x="360" d="M508 639Q508 620 496 602T461 566T410 528T347 487Q326 473 312 463T288 441Q328 444 367 456T437 489Q445 482 454 468T463 441Q463 419 436 413T372 407T296 405T233 392Q216 397 202
407T183 430Q187 442 196 452T220 473T256 497T306 527Q365 562 401 591T438 648Q438 664 427 673T398 683Q370 683 348 666T325 623Q325 607 348 587Q333 584 328 584T319 583Q289 583 269 596T249 630Q249 646 262 660T296 686T343 703T397 710Q448 710 478 691T508
639Z" />
<glyph unicode="&#xb3;" glyph-name="threesuperior" horiz-adv-x="342" d="M265 682Q275 687 290 691T323 699T357 703T388 705Q439 705 460 687T481 649Q481 630 464 609T417 570Q449 565 462 552T475 517Q475 485 452 463T392 428T314 408T235 401Q211 405
199 419T186 454Q186 455 186 459T187 465Q200 463 214 461T240 459Q266 459 296 463T353 476T396 496T413 525Q413 544 377 550Q360 544 345 541T320 538Q304 538 292 548T280 582Q305 582 332 585T382 597T421 620T438 657Q431 667 411 667Q386 667 354 656T298
628Q263 642 263 672Q263 678 265 682Z" />
<glyph unicode="&#xb4;" glyph-name="acute" horiz-adv-x="285" d="M207 729Q217 723 227 710T246 680T260 646T265 615Q227 589 199 572T148 545T108 530T75 525Q43 525 20 544Q42 552 66 569T114 610T162 664T207 729Z" />
<glyph unicode="&#xb5;" glyph-name="mu" horiz-adv-x="519" d="M384 22Q365 38 359 62T352 103Q352 124 357 139Q353 139 339 123T309 85T277 42T252 11Q240 -3 228 -11T209 -20Q198 -19 185 -13T167 10Q150 -41 142 -81T133 -150Q133 -185 145 -207T185 -237Q184
-242 182 -248T178 -260Q114 -249 85 -223T55 -143Q55 -130 62 -89T83 11T117 136T162 268T216 387T280 474Q289 474 302 473T329 467T355 458T376 443Q367 433 331 376T249 212Q244 201 237 180T223 136T212 91T207 56Q207 48 209 44T214 38Q229 44 252 71T316
154Q326 168 339 186T367 224T393 267T414 311Q418 323 424 339T440 374T462 410T492 445Q505 445 520 442T548 435T572 425T587 413Q569 369 547 326T506 242T474 159T461 79Q461 58 464 43T472 17T479 -1T483 -13Q483 -14 481 -16Q480 -17 479 -17Q472 -17 461
-14T437 -6T410 7T384 22Z" />
<glyph unicode="&#xb6;" glyph-name="paragraph" horiz-adv-x="610" d="M500 512Q532 512 552 506T584 492Q560 444 536 386T488 267T445 146T410 34T387 -57T378 -117Q378 -125 379 -136T382 -150Q347 -144 324 -132T288 -95Q288 -90 295 -68T314 -13T342 63T375
151T409 244T443 334Q395 302 358 285T289 268Q270 268 251 274T215 296T188 336T177 397Q177 450 196 495T249 578T326 643T419 692T520 724T619 739Q646 739 668 730T706 704T730 667T739 620Q739 598 734 582T714 566Q712 590 703 599T669 609Q637 609 595 599T509
571T421 529T345 477T291 419T270 357Q270 333 283 327T310 321Q347 321 386 336T455 367Q475 421 487 460T500 512ZM698 511Q687 478 670 435T633 344T593 246T557 151T530 66T520 1Q520 -21 526 -36Q512 -36 498 -32T473 -19T455 2T448 31Q448 53 458 90T484
173T519 268T557 365T591 456T613 530Q640 530 662 524T698 511Z" />
<glyph unicode="&#xb7;" glyph-name="middot" horiz-adv-x="227" d="M184 191Q171 193 156 203T137 224Q137 234 140 250T147 282T156 312T162 334Q171 334 186 329T218 316T249 296T271 273Q264 256 252 241T228 215T203 198T184 191Z" />
<glyph unicode="&#xb8;" glyph-name="cedilla" horiz-adv-x="255" d="M159 14Q134 -15 111 -50T77 -111Q86 -106 99 -102T127 -93T154 -87T177 -85Q181 -85 191 -91T210 -106T227 -122T235 -134Q235 -141 223 -156T193 -189T151 -227T107 -263T69 -289T43 -300Q41
-300 38 -296T31 -285T25 -273T22 -264Q45 -245 62 -229T93 -198T119 -166T144 -128Q136 -130 121 -133T90 -142T57 -153T28 -163Q25 -161 23 -158T20 -151Q24 -140 35 -120T61 -77T96 -28T134 17L159 14Z" />
<glyph unicode="&#xb9;" glyph-name="onesuperior" horiz-adv-x="312" d="M365 455Q388 455 400 448T413 426Q413 424 411 418T408 406Q397 407 386 408T364 409Q332 409 299 404T237 399Q213 399 195 407T169 429Q174 433 201 437T262 447Q276 491 294 535T333
622Q319 616 305 609T280 593Q262 597 262 612Q277 627 294 638T327 661T357 684T382 712Q414 706 439 700T474 682Q461 676 445 654T410 599T374 529T340 454Q347 454 353 454T365 455Z" />
<glyph unicode="&#xba;" glyph-name="ordmasculine" horiz-adv-x="336" d="M296 411Q255 414 231 441T206 511Q206 536 215 562T239 614T276 661T324 700Q362 725 398 725Q421 716 443 681Q446 681 449 681T456 682Q494 682 494 624Q494 585 479 550T438 487T376
439T296 411ZM333 606Q308 577 292 541T275 480Q275 465 280 452T293 436Q325 442 352 459T400 501T431 559T442 628Q442 657 432 670Q401 662 376 644T333 606Z" />
<glyph unicode="&#xbb;" glyph-name="guillemotright" horiz-adv-x="1043" d="M193 437Q238 437 279 430T358 409T433 380T507 346Q523 337 540 324T572 293T597 255T608 209Q598 198 578 190T534 174T482 161T431 148Q394 137 364 126T302 98T235 61T153 12Q124
35 111 55T97 94Q97 117 120 135T180 165Q211 175 256 190T347 219T435 247T502 268Q497 276 491 283T475 298T447 316T404 340Q380 353 351 364T290 385T228 399T167 405Q168 414 176 424T193 437ZM673 437Q718 437 759 430T838 409T913 380T987 346Q1003 337
1020 324T1052 293T1077 255T1088 209Q1078 198 1058 190T1014 174T962 161T911 148Q874 137 844 126T782 98T715 61T633 12Q604 35 591 55T577 94Q577 117 600 135T660 165Q691 175 736 190T827 219T915 247T982 268Q977 276 971 283T955 298T927 316T884 340Q860
353 831 364T770 385T708 399T647 405Q648 414 656 424T673 437Z" />
<glyph unicode="&#xbc;" glyph-name="onequarter" horiz-adv-x="787" d="M827 713Q777 638 722 562T610 414T498 274T391 148T296 42T217 -39Q206 -37 193 -24T175 7Q214 42 262 95T361 213T465 349T567 493T658 634T731 761Q743 761 758 757T787 745T813 730T827
713ZM373 455Q396 455 408 448T421 426Q421 424 419 418T416 406Q405 407 394 408T372 409Q340 409 307 404T245 399Q221 399 203 407T177 429Q182 433 209 437T270 447Q284 491 302 535T341 622Q327 616 313 609T288 593Q270 597 270 612Q285 627 302 638T335
661T365 684T390 712Q422 706 447 700T482 682Q469 676 453 654T418 599T382 529T348 454Q355 454 361 454T373 455ZM749 244Q774 242 794 235T827 214Q772 159 730 101Q738 103 745 103Q755 96 758 85L711 72Q676 18 654 -47Q632 -46 612 -43T577 -27Q595 16 620
56Q591 56 571 57T533 62T499 72T464 89Q509 124 547 167T615 256Q637 251 659 244T703 222Q684 207 664 190T623 155T586 123T556 95Q568 93 579 92T602 91Q612 91 622 91T643 92Q669 130 695 168T749 244Z" />
<glyph unicode="&#xbd;" glyph-name="onehalf" horiz-adv-x="810" d="M827 713Q777 638 722 562T610 414T498 274T391 148T296 42T217 -39Q206 -37 193 -24T175 7Q214 42 262 95T361 213T465 349T567 493T658 634T731 761Q743 761 758 757T787 745T813 730T827
713ZM373 455Q396 455 408 448T421 426Q421 424 419 418T416 406Q405 407 394 408T372 409Q340 409 307 404T245 399Q221 399 203 407T177 429Q182 433 209 437T270 447Q284 491 302 535T341 622Q327 616 313 609T288 593Q270 597 270 612Q285 627 302 638T335
661T365 684T390 712Q422 706 447 700T482 682Q469 676 453 654T418 599T382 529T348 454Q355 454 361 454T373 455ZM820 189Q820 170 808 152T773 116T722 78T659 37Q638 23 624 13T600 -9Q640 -6 679 6T749 39Q757 32 766 18T775 -9Q775 -31 748 -37T684 -43T608
-45T545 -58Q528 -53 514 -43T495 -20Q499 -8 508 2T532 23T568 47T618 77Q677 112 713 141T750 198Q750 214 739 223T710 233Q682 233 660 216T637 173Q637 157 660 137Q645 134 640 134T631 133Q601 133 581 146T561 180Q561 196 574 210T608 236T655 253T709
260Q760 260 790 241T820 189Z" />
<glyph unicode="&#xbe;" glyph-name="threequarters" horiz-adv-x="797" d="M837 713Q786 638 731 562T620 414T508 274T401 148T306 42T227 -39Q216 -37 203 -24T185 7Q224 42 272 95T371 213T475 349T577 493T668 634T741 761Q753 761 768 757T797 745T823 730T837
713ZM269 682Q279 687 294 691T327 699T361 703T392 705Q443 705 464 687T485 649Q485 630 468 609T421 570Q453 565 466 552T479 517Q479 485 456 463T396 428T318 408T239 401Q215 405 203 419T190 454Q190 455 190 459T191 465Q204 463 218 461T244 459Q270
459 300 463T357 476T400 496T417 525Q417 544 381 550Q364 544 349 541T324 538Q308 538 296 548T284 582Q309 582 336 585T386 597T425 620T442 657Q435 667 415 667Q390 667 358 656T302 628Q267 642 267 672Q267 678 269 682ZM759 244Q784 242 804 235T837
214Q782 159 740 101Q748 103 755 103Q765 96 768 85L721 72Q686 18 664 -47Q642 -46 622 -43T587 -27Q605 16 630 56Q601 56 581 57T543 62T509 72T474 89Q519 124 557 167T625 256Q647 251 669 244T713 222Q694 207 674 190T633 155T596 123T566 95Q578 93 589
92T612 91Q622 91 632 91T653 92Q679 130 705 168T759 244Z" />
<glyph unicode="&#xbf;" glyph-name="questiondown" horiz-adv-x="472" d="M199 -363Q160 -360 124 -343T59 -300T14 -240T-3 -169Q-3 -131 10 -98T50 -31T114 39T200 122Q247 166 271 211T295 294Q295 299 295 304T293 315Q310 314 329 307T365 289T396 264T416
236Q416 213 405 181T372 113T314 41T229 -24Q150 -71 111 -115T72 -194Q72 -210 78 -225T95 -252T118 -271T145 -279Q160 -279 178 -264T213 -227T240 -179T251 -132Q251 -119 248 -114Q256 -112 261 -112T271 -112Q290 -112 310 -116T346 -126T374 -140T389 -158Q381
-191 361 -226T313 -290T256 -340T199 -363ZM414 369Q402 369 391 374T372 387T358 403T353 417Q353 429 356 448T365 484T380 514T400 527Q428 527 456 508T499 464Q487 451 478 435T460 404T440 379T414 369Z" />
<glyph unicode="&#xc0;" glyph-name="Agrave" horiz-adv-x="642" d="M146 -76Q98 -62 80 -48T61 -13Q61 3 70 32T96 100T138 188T194 291Q168 292 148 292T114 293Q120 308 148 319T222 338Q261 403 305 462T395 570T485 657T571 717Q572 724 572 729T573 736Q587
736 610 729T656 712T696 692T716 674Q683 616 651 501T598 224Q593 184 590 133T586 19Q586 -3 586 -26T588 -74Q586 -75 584 -75T576 -75Q562 -75 544 -71T508 -60T478 -45T462 -31Q461 -18 461 -6T461 21Q461 83 465 147T481 279Q467 280 444 281T393 284T332
286T268 289Q244 244 223 200T187 110Q170 62 160 14T146 -76ZM532 525Q536 539 541 563T552 615Q527 606 497 582T434 523T368 443T303 348Q387 355 494 357Q502 399 511 440T532 525ZM575 883Q617 846 667 820T762 783Q739 764 707 764Q691 764 674 766T635 775T584
792T517 819Q517 828 522 838T535 857T554 873T575 883Z" />
<glyph unicode="&#xc1;" glyph-name="Aacute" horiz-adv-x="642" d="M146 -76Q98 -62 80 -48T61 -13Q61 3 70 32T96 100T138 188T194 291Q168 292 148 292T114 293Q120 308 148 319T222 338Q261 403 305 462T395 570T485 657T571 717Q572 724 572 729T573 736Q587
736 610 729T656 712T696 692T716 674Q683 616 651 501T598 224Q593 184 590 133T586 19Q586 -3 586 -26T588 -74Q586 -75 584 -75T576 -75Q562 -75 544 -71T508 -60T478 -45T462 -31Q461 -18 461 -6T461 21Q461 83 465 147T481 279Q467 280 444 281T393 284T332
286T268 289Q244 244 223 200T187 110Q170 62 160 14T146 -76ZM532 525Q536 539 541 563T552 615Q527 606 497 582T434 523T368 443T303 348Q387 355 494 357Q502 399 511 440T532 525ZM755 883Q776 877 794 857T813 819Q775 803 747 793T696 776T656 767T623 764Q591
764 568 783Q613 793 663 819T755 883Z" />
<glyph unicode="&#xc2;" glyph-name="Acircumflex" horiz-adv-x="642" d="M146 -76Q98 -62 80 -48T61 -13Q61 3 70 32T96 100T138 188T194 291Q168 292 148 292T114 293Q120 308 148 319T222 338Q261 403 305 462T395 570T485 657T571 717Q572 724 572 729T573
736Q587 736 610 729T656 712T696 692T716 674Q683 616 651 501T598 224Q593 184 590 133T586 19Q586 -3 586 -26T588 -74Q586 -75 584 -75T576 -75Q562 -75 544 -71T508 -60T478 -45T462 -31Q461 -18 461 -6T461 21Q461 83 465 147T481 279Q467 280 444 281T393
284T332 286T268 289Q244 244 223 200T187 110Q170 62 160 14T146 -76ZM532 525Q536 539 541 563T552 615Q527 606 497 582T434 523T368 443T303 348Q387 355 494 357Q502 399 511 440T532 525ZM719 882Q726 826 737 797T771 754Q769 753 762 753Q737 753 711 768T663
809Q636 789 605 777T551 764Q536 764 523 768T497 786Q573 805 634 857Q632 861 630 869Q650 883 691 883Q703 883 708 883T719 882Z" />
<glyph unicode="&#xc3;" glyph-name="Atilde" horiz-adv-x="642" d="M146 -76Q98 -62 80 -48T61 -13Q61 3 70 32T96 100T138 188T194 291Q168 292 148 292T114 293Q120 308 148 319T222 338Q261 403 305 462T395 570T485 657T571 717Q572 724 572 729T573 736Q587
736 610 729T656 712T696 692T716 674Q683 616 651 501T598 224Q593 184 590 133T586 19Q586 -3 586 -26T588 -74Q586 -75 584 -75T576 -75Q562 -75 544 -71T508 -60T478 -45T462 -31Q461 -18 461 -6T461 21Q461 83 465 147T481 279Q467 280 444 281T393 284T332
286T268 289Q244 244 223 200T187 110Q170 62 160 14T146 -76ZM532 525Q536 539 541 563T552 615Q527 606 497 582T434 523T368 443T303 348Q387 355 494 357Q502 399 511 440T532 525ZM484 853Q531 837 576 837Q614 837 655 848T747 883Q759 871 768 846T781 803Q736
782 698 777T627 771Q565 771 528 794T484 853Z" />
<glyph unicode="&#xc4;" glyph-name="Adieresis" horiz-adv-x="642" d="M146 -76Q98 -62 80 -48T61 -13Q61 3 70 32T96 100T138 188T194 291Q168 292 148 292T114 293Q120 308 148 319T222 338Q261 403 305 462T395 570T485 657T571 717Q572 724 572 729T573 736Q587
736 610 729T656 712T696 692T716 674Q683 616 651 501T598 224Q593 184 590 133T586 19Q586 -3 586 -26T588 -74Q586 -75 584 -75T576 -75Q562 -75 544 -71T508 -60T478 -45T462 -31Q461 -18 461 -6T461 21Q461 83 465 147T481 279Q467 280 444 281T393 284T332
286T268 289Q244 244 223 200T187 110Q170 62 160 14T146 -76ZM532 525Q536 539 541 563T552 615Q527 606 497 582T434 523T368 443T303 348Q387 355 494 357Q502 399 511 440T532 525ZM567 788Q567 803 569 819T577 849T594 872T625 883Q638 881 660 869T693 839Q693
839 685 828T665 804T643 779T628 764Q603 769 588 774T567 788ZM698 788Q698 804 700 820T708 850T725 873T754 883Q760 883 769 879T789 869T808 855T823 839Q823 838 815 827T795 803T773 777T756 763Q733 766 719 773T698 788Z" />
<glyph unicode="&#xc5;" glyph-name="Aring" horiz-adv-x="644" d="M740 766Q726 744 705 730T658 711Q681 701 698 691T717 674Q684 616 652 501T599 224Q594 184 591 133T587 19Q587 -3 587 -26T589 -74Q587 -75 585 -75T577 -75Q563 -75 545 -71T509 -60T479
-45T463 -31Q462 -18 462 -6T462 21Q462 83 466 147T482 279Q468 280 445 281T394 284T333 286T269 289Q245 244 224 200T188 110Q171 62 161 14T147 -76Q99 -62 81 -48T62 -13Q62 3 71 32T97 100T139 188T195 291Q169 292 149 292T115 293Q121 308 149 319T223
338Q263 408 310 468T404 579T495 669T574 734Q559 745 550 760T541 793Q541 813 551 829T577 858T612 876T651 883Q672 883 690 877T721 860T743 835T751 804Q751 785 740 766ZM533 525Q537 539 542 563T553 615Q528 606 498 582T435 523T369 443T304 348Q388
355 495 357Q503 399 512 440T533 525ZM709 813Q709 829 699 841T670 853Q659 853 647 847T624 832T606 809T599 780Q599 761 607 748T633 734Q651 734 665 741T689 761T704 787T709 813Z" />
<glyph unicode="&#xc6;" glyph-name="AE" horiz-adv-x="914" d="M777 418Q830 418 859 400T889 350Q889 342 887 334T881 319Q861 321 835 322T774 324Q748 324 716 323T649 319Q625 265 606 215T572 122T550 49T541 3Q622 20 704 32T878 50Q889 33 896 13T904
-30Q904 -36 904 -43T902 -57Q874 -56 843 -56T762 -55Q729 -55 700 -56T640 -61T577 -69T501 -81Q455 -63 412 7Q429 43 459 116T536 312Q466 307 403 303T301 299H279Q256 256 236 209T197 110Q180 62 170 14T156 -76Q108 -62 90 -48T71 -13Q71 0 81 31T111 105T156
201T216 308Q154 322 133 355Q194 358 250 364Q293 431 341 495T441 609T545 689T648 719Q675 719 703 718T759 716Q801 716 842 719T916 726T971 733T1000 737Q1023 737 1041 708T1068 630Q1055 634 1031 638T976 644T907 648T831 650Q820 650 810 650T788 649L798
635Q792 626 785 615T767 580T737 517T690 414Q713 415 735 416T777 418ZM642 640Q561 628 477 558T320 370Q392 378 453 385T569 400Q584 440 595 470T614 526T628 580T642 640Z" />
<glyph unicode="&#xc7;" glyph-name="Ccedilla" horiz-adv-x="605" d="M142 196Q142 266 158 333T205 461T276 572T367 660T473 717T588 738Q657 738 695 709T734 628Q734 608 729 587T713 546T688 506T657 473Q631 477 612 496T588 542Q623 571 643 602T664 660Q664
704 609 704Q586 704 562 695T512 668T464 627T420 574Q281 374 281 165Q281 91 304 46T365 -7Q408 3 474 48T618 165Q628 155 630 144Q601 106 570 71T509 7T449 -44T394 -78Q380 -95 371 -111T356 -142Q365 -137 378 -133T406 -124T433 -118T456 -116Q460 -116
470 -122T489 -137T506 -153T514 -165Q514 -172 502 -187T472 -220T430 -258T386 -294T348 -320T322 -331Q320 -331 317 -327T310 -316T304 -304T301 -295Q324 -276 341 -260T372 -229T398 -197T423 -159Q415 -161 400 -164T369 -173T336 -184T307 -194Q304 -192
302 -189T299 -182Q304 -168 321 -138T362 -76Q253 -65 198 3T142 196Z" />
<glyph unicode="&#xc8;" glyph-name="Egrave" horiz-adv-x="609" d="M514 426Q547 426 565 408T584 358Q584 350 583 342T579 327Q566 329 550 330T512 332Q469 332 425 325T341 312Q318 259 299 210T267 119T246 48T237 3Q318 20 400 32T574 50Q585 33 592 13T600
-30Q600 -36 600 -43T598 -57Q570 -56 539 -56T458 -55Q425 -55 396 -56T336 -61T273 -69T197 -81Q151 -63 108 7Q125 43 155 116T233 313Q188 327 174 363Q179 368 203 375T262 391Q277 430 287 459T306 513T320 563T333 617Q298 619 278 636T258 682Q258 690
260 701T266 720Q286 717 304 716T353 715Q416 715 471 718T570 726T647 733T696 737Q719 737 737 713T764 645Q733 648 714 649T679 650Q624 650 579 645T491 633Q485 624 478 610T458 571T429 508T386 413Q424 419 457 422T514 426ZM454 883Q496 846 546 820T641
783Q618 764 586 764Q570 764 553 766T514 775T463 792T396 819Q396 828 401 838T414 857T433 873T454 883Z" />
<glyph unicode="&#xc9;" glyph-name="Eacute" horiz-adv-x="609" d="M514 426Q547 426 565 408T584 358Q584 350 583 342T579 327Q566 329 550 330T512 332Q469 332 425 325T341 312Q318 259 299 210T267 119T246 48T237 3Q318 20 400 32T574 50Q585 33 592 13T600
-30Q600 -36 600 -43T598 -57Q570 -56 539 -56T458 -55Q425 -55 396 -56T336 -61T273 -69T197 -81Q151 -63 108 7Q125 43 155 116T233 313Q188 327 174 363Q179 368 203 375T262 391Q277 430 287 459T306 513T320 563T333 617Q298 619 278 636T258 682Q258 690
260 701T266 720Q286 717 304 716T353 715Q416 715 471 718T570 726T647 733T696 737Q719 737 737 713T764 645Q733 648 714 649T679 650Q624 650 579 645T491 633Q485 624 478 610T458 571T429 508T386 413Q424 419 457 422T514 426ZM634 883Q655 877 673 857T692
819Q654 803 626 793T575 776T535 767T502 764Q470 764 447 783Q492 793 542 819T634 883Z" />
<glyph unicode="&#xca;" glyph-name="Ecircumflex" horiz-adv-x="609" d="M514 426Q547 426 565 408T584 358Q584 350 583 342T579 327Q566 329 550 330T512 332Q469 332 425 325T341 312Q318 259 299 210T267 119T246 48T237 3Q318 20 400 32T574 50Q585 33 592
13T600 -30Q600 -36 600 -43T598 -57Q570 -56 539 -56T458 -55Q425 -55 396 -56T336 -61T273 -69T197 -81Q151 -63 108 7Q125 43 155 116T233 313Q188 327 174 363Q179 368 203 375T262 391Q277 430 287 459T306 513T320 563T333 617Q298 619 278 636T258 682Q258
690 260 701T266 720Q286 717 304 716T353 715Q416 715 471 718T570 726T647 733T696 737Q719 737 737 713T764 645Q733 648 714 649T679 650Q624 650 579 645T491 633Q485 624 478 610T458 571T429 508T386 413Q424 419 457 422T514 426ZM598 882Q605 826 616
797T650 754Q648 753 641 753Q616 753 590 768T542 809Q515 789 484 777T430 764Q415 764 402 768T376 786Q452 805 513 857Q511 861 509 869Q529 883 570 883Q582 883 587 883T598 882Z" />
<glyph unicode="&#xcb;" glyph-name="Edieresis" horiz-adv-x="609" d="M514 426Q547 426 565 408T584 358Q584 350 583 342T579 327Q566 329 550 330T512 332Q469 332 425 325T341 312Q318 259 299 210T267 119T246 48T237 3Q318 20 400 32T574 50Q585 33 592
13T600 -30Q600 -36 600 -43T598 -57Q570 -56 539 -56T458 -55Q425 -55 396 -56T336 -61T273 -69T197 -81Q151 -63 108 7Q125 43 155 116T233 313Q188 327 174 363Q179 368 203 375T262 391Q277 430 287 459T306 513T320 563T333 617Q298 619 278 636T258 682Q258
690 260 701T266 720Q286 717 304 716T353 715Q416 715 471 718T570 726T647 733T696 737Q719 737 737 713T764 645Q733 648 714 649T679 650Q624 650 579 645T491 633Q485 624 478 610T458 571T429 508T386 413Q424 419 457 422T514 426ZM446 788Q446 803 448
819T456 849T473 872T504 883Q517 881 539 869T572 839Q572 839 564 828T544 804T522 779T507 764Q482 769 467 774T446 788ZM577 788Q577 804 579 820T587 850T604 873T633 883Q639 883 648 879T668 869T687 855T702 839Q702 838 694 827T674 803T652 777T635
763Q612 766 598 773T577 788Z" />
<glyph unicode="&#xcc;" glyph-name="Igrave" horiz-adv-x="315" d="M131 57Q131 93 142 150T172 274T215 410T264 541T313 648T356 714Q366 713 382 707T416 691T447 672T465 652Q436 626 408 574T353 454T303 313T263 168T237 38T227 -59Q227 -76 230 -80Q208
-79 198 -73T183 -59T173 -44T159 -32Q152 -29 147 -18T139 6T133 34T131 57ZM379 883Q421 846 471 820T566 783Q543 764 511 764Q495 764 478 766T439 775T388 792T321 819Q321 828 326 838T339 857T358 873T379 883Z" />
<glyph unicode="&#xcd;" glyph-name="Iacute" horiz-adv-x="315" d="M131 57Q131 93 142 150T172 274T215 410T264 541T313 648T356 714Q366 713 382 707T416 691T447 672T465 652Q436 626 408 574T353 454T303 313T263 168T237 38T227 -59Q227 -76 230 -80Q208
-79 198 -73T183 -59T173 -44T159 -32Q152 -29 147 -18T139 6T133 34T131 57ZM559 883Q580 877 598 857T617 819Q579 803 551 793T500 776T460 767T427 764Q395 764 372 783Q417 793 467 819T559 883Z" />
<glyph unicode="&#xce;" glyph-name="Icircumflex" horiz-adv-x="315" d="M131 57Q131 93 142 150T172 274T215 410T264 541T313 648T356 714Q366 713 382 707T416 691T447 672T465 652Q436 626 408 574T353 454T303 313T263 168T237 38T227 -59Q227 -76 230 -80Q208
-79 198 -73T183 -59T173 -44T159 -32Q152 -29 147 -18T139 6T133 34T131 57ZM523 882Q530 826 541 797T575 754Q573 753 566 753Q541 753 515 768T467 809Q440 789 409 777T355 764Q340 764 327 768T301 786Q377 805 438 857Q436 861 434 869Q454 883 495 883Q507
883 512 883T523 882Z" />
<glyph unicode="&#xcf;" glyph-name="Idieresis" horiz-adv-x="315" d="M131 57Q131 93 142 150T172 274T215 410T264 541T313 648T356 714Q366 713 382 707T416 691T447 672T465 652Q436 626 408 574T353 454T303 313T263 168T237 38T227 -59Q227 -76 230 -80Q208
-79 198 -73T183 -59T173 -44T159 -32Q152 -29 147 -18T139 6T133 34T131 57ZM371 788Q371 803 373 819T381 849T398 872T429 883Q442 881 464 869T497 839Q497 839 489 828T469 804T447 779T432 764Q407 769 392 774T371 788ZM502 788Q502 804 504 820T512 850T529
873T558 883Q564 883 573 879T593 869T612 855T627 839Q627 838 619 827T599 803T577 777T560 763Q537 766 523 773T502 788Z" />
<glyph unicode="&#xd0;" glyph-name="Eth" horiz-adv-x="778" d="M168 52Q185 90 209 149T259 278Q233 280 210 282T167 289Q169 299 169 313T170 355Q197 353 225 353T287 352Q306 401 323 449T356 539T382 613T399 665Q336 639 291 586T223 453Q200 461 181
481T156 533Q166 579 193 617T263 682T360 723T478 738Q558 738 625 715T740 649T815 548T842 417Q842 319 806 230T709 73T566 -35T396 -76Q314 -76 256 -44T168 52ZM521 688Q471 688 426 674Q470 658 499 641T539 613Q532 603 519 579T487 520T449 444T407 357Q461
363 513 372Q521 359 528 333T535 285Q455 276 371 276Q324 170 304 108T283 20Q297 15 317 13T360 11Q441 11 513 48T640 149T726 295T758 471Q758 574 694 631T521 688Z" />
<glyph unicode="&#xd1;" glyph-name="Ntilde" horiz-adv-x="683" d="M190 -76Q133 -59 113 -44T93 -1Q93 29 107 83T143 205T195 345T254 485T312 607T363 694L356 736Q370 736 395 729T445 712T490 692T512 674Q507 650 504 602T501 498Q501 389 509 285T549
72Q565 152 583 231T622 383T662 518T700 626T735 699T764 728Q775 726 788 720T813 704T835 684T851 662Q819 649 788 601T728 485T675 336T632 179T603 35T591 -71Q591 -73 592 -74Q589 -75 586 -75T579 -75Q533 -75 498 -64T451 -31Q430 53 416 131T393 287T378
444T369 611Q350 581 329 533T288 426T250 304T217 179T195 64T187 -31Q187 -52 187 -61T190 -76ZM443 853Q490 837 535 837Q573 837 614 848T706 883Q718 871 727 846T740 803Q695 782 657 777T586 771Q524 771 487 794T443 853Z" />
<glyph unicode="&#xd2;" glyph-name="Ograve" horiz-adv-x="723" d="M562 728Q581 720 601 708T638 682T666 657T679 636Q662 640 645 641T614 643Q569 643 525 621T440 561T366 472T308 363T269 243T255 121Q255 43 281 5T357 -33Q381 -33 409 -24T466 3T523
44T575 97Q610 139 638 192T685 306T715 429T726 554Q726 578 725 594T723 622T720 641T718 653Q730 647 744 639T771 614T792 570T801 500Q801 430 785 363T739 234T669 120T583 27Q523 -26 455 -55T324 -84Q232 -84 184 -26T135 147Q135 208 148 276T186 410T245
535T319 640T406 713T502 740Q518 740 532 738T562 728ZM606 883Q648 846 698 820T793 783Q770 764 738 764Q722 764 705 766T666 775T615 792T548 819Q548 828 553 838T566 857T585 873T606 883Z" />
<glyph unicode="&#xd3;" glyph-name="Oacute" horiz-adv-x="723" d="M562 728Q581 720 601 708T638 682T666 657T679 636Q662 640 645 641T614 643Q569 643 525 621T440 561T366 472T308 363T269 243T255 121Q255 43 281 5T357 -33Q381 -33 409 -24T466 3T523
44T575 97Q610 139 638 192T685 306T715 429T726 554Q726 578 725 594T723 622T720 641T718 653Q730 647 744 639T771 614T792 570T801 500Q801 430 785 363T739 234T669 120T583 27Q523 -26 455 -55T324 -84Q232 -84 184 -26T135 147Q135 208 148 276T186 410T245
535T319 640T406 713T502 740Q518 740 532 738T562 728ZM786 883Q807 877 825 857T844 819Q806 803 778 793T727 776T687 767T654 764Q622 764 599 783Q644 793 694 819T786 883Z" />
<glyph unicode="&#xd4;" glyph-name="Ocircumflex" horiz-adv-x="723" d="M562 728Q581 720 601 708T638 682T666 657T679 636Q662 640 645 641T614 643Q569 643 525 621T440 561T366 472T308 363T269 243T255 121Q255 43 281 5T357 -33Q381 -33 409 -24T466 3T523
44T575 97Q610 139 638 192T685 306T715 429T726 554Q726 578 725 594T723 622T720 641T718 653Q730 647 744 639T771 614T792 570T801 500Q801 430 785 363T739 234T669 120T583 27Q523 -26 455 -55T324 -84Q232 -84 184 -26T135 147Q135 208 148 276T186 410T245
535T319 640T406 713T502 740Q518 740 532 738T562 728ZM750 882Q757 826 768 797T802 754Q800 753 793 753Q768 753 742 768T694 809Q667 789 636 777T582 764Q567 764 554 768T528 786Q604 805 665 857Q663 861 661 869Q681 883 722 883Q734 883 739 883T750
882Z" />
<glyph unicode="&#xd5;" glyph-name="Otilde" horiz-adv-x="723" d="M562 728Q581 720 601 708T638 682T666 657T679 636Q662 640 645 641T614 643Q569 643 525 621T440 561T366 472T308 363T269 243T255 121Q255 43 281 5T357 -33Q381 -33 409 -24T466 3T523
44T575 97Q610 139 638 192T685 306T715 429T726 554Q726 578 725 594T723 622T720 641T718 653Q730 647 744 639T771 614T792 570T801 500Q801 430 785 363T739 234T669 120T583 27Q523 -26 455 -55T324 -84Q232 -84 184 -26T135 147Q135 208 148 276T186 410T245
535T319 640T406 713T502 740Q518 740 532 738T562 728ZM515 853Q562 837 607 837Q645 837 686 848T778 883Q790 871 799 846T812 803Q767 782 729 777T658 771Q596 771 559 794T515 853Z" />
<glyph unicode="&#xd6;" glyph-name="Odieresis" horiz-adv-x="723" d="M562 728Q581 720 601 708T638 682T666 657T679 636Q662 640 645 641T614 643Q569 643 525 621T440 561T366 472T308 363T269 243T255 121Q255 43 281 5T357 -33Q381 -33 409 -24T466 3T523
44T575 97Q610 139 638 192T685 306T715 429T726 554Q726 578 725 594T723 622T720 641T718 653Q730 647 744 639T771 614T792 570T801 500Q801 430 785 363T739 234T669 120T583 27Q523 -26 455 -55T324 -84Q232 -84 184 -26T135 147Q135 208 148 276T186 410T245
535T319 640T406 713T502 740Q518 740 532 738T562 728ZM598 788Q598 803 600 819T608 849T625 872T656 883Q669 881 691 869T724 839Q724 839 716 828T696 804T674 779T659 764Q634 769 619 774T598 788ZM729 788Q729 804 731 820T739 850T756 873T785 883Q791
883 800 879T820 869T839 855T854 839Q854 838 846 827T826 803T804 777T787 763Q764 766 750 773T729 788Z" />
<glyph unicode="&#xd7;" glyph-name="multiply" horiz-adv-x="484" d="M256 245Q244 255 228 269T198 299T175 332T165 366Q165 379 167 387T176 403T195 418T225 437Q242 402 265 373T316 315Q358 362 394 398T460 455Q469 450 482 440T507 419T527 396T537 378Q499
355 460 323T381 252Q404 230 425 208T465 161Q469 156 470 151T471 139Q471 116 456 93T425 53Q399 98 372 130T318 188Q255 120 197 49Q183 56 170 70T148 103Q174 140 201 176T256 245Z" />
<glyph unicode="&#xd8;" glyph-name="Oslash" horiz-adv-x="723" d="M562 728Q581 720 601 708T638 682T666 657T679 636Q662 640 645 641T614 643Q569 643 525 621T440 561T366 472T308 363T269 243T255 121Q255 110 255 100T257 79Q317 128 381 189T507 315T625
445T726 568Q725 597 723 620T718 653Q729 648 741 641T765 621Q788 653 804 681T830 731Q854 731 871 722T896 696Q846 628 794 564Q797 550 799 535T801 500Q801 430 785 363T739 234T669 120T583 27Q523 -26 455 -55T324 -84Q234 -84 186 -28Q147 -55 111 -76Q100
-74 93 -63T85 -38Q102 -30 121 -18T162 8Q135 62 135 147Q135 208 148 276T186 410T245 535T319 640T406 713T502 740Q518 740 532 738T562 728ZM722 478Q609 346 493 232T268 32Q292 -33 357 -33Q381 -33 409 -24T466 3T523 44T575 97Q605 132 629 176T672 269T703
372T722 478Z" />
<glyph unicode="&#xd9;" glyph-name="Ugrave" horiz-adv-x="697" d="M485 673Q441 614 405 543T344 398T305 251T291 115Q291 37 314 2T393 -33Q458 -33 507 12T599 138Q627 190 647 252T679 379T698 511T704 639Q704 678 703 696T700 725Q703 725 715 723T742
718T773 710T800 699Q795 623 782 542T746 382T695 230T630 99Q577 13 511 -35T355 -84Q263 -84 212 -31T161 132Q161 195 175 274T212 436T267 597T332 738Q349 737 372 731T417 716T457 695T485 673ZM509 883Q551 846 601 820T696 783Q673 764 641 764Q625 764
608 766T569 775T518 792T451 819Q451 828 456 838T469 857T488 873T509 883Z" />
<glyph unicode="&#xda;" glyph-name="Uacute" horiz-adv-x="697" d="M485 673Q441 614 405 543T344 398T305 251T291 115Q291 37 314 2T393 -33Q458 -33 507 12T599 138Q627 190 647 252T679 379T698 511T704 639Q704 678 703 696T700 725Q703 725 715 723T742
718T773 710T800 699Q795 623 782 542T746 382T695 230T630 99Q577 13 511 -35T355 -84Q263 -84 212 -31T161 132Q161 195 175 274T212 436T267 597T332 738Q349 737 372 731T417 716T457 695T485 673ZM689 883Q710 877 728 857T747 819Q709 803 681 793T630 776T590
767T557 764Q525 764 502 783Q547 793 597 819T689 883Z" />
<glyph unicode="&#xdb;" glyph-name="Ucircumflex" horiz-adv-x="697" d="M485 673Q441 614 405 543T344 398T305 251T291 115Q291 37 314 2T393 -33Q458 -33 507 12T599 138Q627 190 647 252T679 379T698 511T704 639Q704 678 703 696T700 725Q703 725 715 723T742
718T773 710T800 699Q795 623 782 542T746 382T695 230T630 99Q577 13 511 -35T355 -84Q263 -84 212 -31T161 132Q161 195 175 274T212 436T267 597T332 738Q349 737 372 731T417 716T457 695T485 673ZM653 882Q660 826 671 797T705 754Q703 753 696 753Q671 753
645 768T597 809Q570 789 539 777T485 764Q470 764 457 768T431 786Q507 805 568 857Q566 861 564 869Q584 883 625 883Q637 883 642 883T653 882Z" />
<glyph unicode="&#xdc;" glyph-name="Udieresis" horiz-adv-x="697" d="M485 673Q441 614 405 543T344 398T305 251T291 115Q291 37 314 2T393 -33Q458 -33 507 12T599 138Q627 190 647 252T679 379T698 511T704 639Q704 678 703 696T700 725Q703 725 715 723T742
718T773 710T800 699Q795 623 782 542T746 382T695 230T630 99Q577 13 511 -35T355 -84Q263 -84 212 -31T161 132Q161 195 175 274T212 436T267 597T332 738Q349 737 372 731T417 716T457 695T485 673ZM501 788Q501 803 503 819T511 849T528 872T559 883Q572 881
594 869T627 839Q627 839 619 828T599 804T577 779T562 764Q537 769 522 774T501 788ZM632 788Q632 804 634 820T642 850T659 873T688 883Q694 883 703 879T723 869T742 855T757 839Q757 838 749 827T729 803T707 777T690 763Q667 766 653 773T632 788Z" />
<glyph unicode="&#xdd;" glyph-name="Yacute" horiz-adv-x="613" d="M470 345Q545 427 604 519T715 726Q741 723 765 712T803 687Q748 621 704 567T622 466T554 375T492 287Q477 236 464 184T441 85T426 -3T420 -73Q409 -73 385 -69T336 -58T291 -46T266 -36Q282
-9 297 30T328 113T357 201T383 284Q358 362 335 430T289 554T247 650T209 711Q219 715 239 719T284 727T334 733T380 737Q380 712 384 676T396 599T414 516T434 439T453 379T470 345ZM677 883Q698 877 716 857T735 819Q697 803 669 793T618 776T578 767T545 764Q513
764 490 783Q535 793 585 819T677 883Z" />
<glyph unicode="&#xde;" glyph-name="Thorn" horiz-adv-x="642" d="M724 385Q724 330 697 280T623 193T514 133T381 111Q370 111 363 111T345 113Q323 126 300 155Q275 91 258 34T228 -81Q190 -72 166 -50T122 7Q132 26 146 56T181 133T227 242T289 391L319 465Q272
449 233 430T168 388Q159 394 150 406T132 432T118 462T111 489Q131 503 158 515T218 538T285 557T356 572Q367 607 376 645T396 737Q404 737 410 737T424 738Q457 738 477 734T510 724T530 710T542 692Q531 678 517 650T485 582Q540 581 584 566T660 526T707 464T724
385ZM375 331Q359 297 346 266T320 204Q331 203 342 203T366 203Q433 203 491 217T592 257T660 317T685 390Q685 442 650 473T546 505Q523 505 498 503T448 497Q431 459 413 418T375 331Z" />
<glyph unicode="&#xdf;" glyph-name="germandbls" horiz-adv-x="600" d="M91 -289Q77 -283 70 -273T57 -252T44 -228T20 -207Q33 -136 46 -72T75 53T109 168T150 277Q184 358 231 439T340 591T476 719T640 808Q662 795 679 782T709 752T729 715T736 670Q736 629
718 581T669 486T596 404T504 353Q566 303 590 261T615 173Q615 123 592 75T530 -13T440 -81T334 -118Q323 -114 312 -105T290 -82T273 -53T265 -20Q312 -8 357 16T437 73T495 143T517 216Q517 263 481 303T381 383Q445 408 497 446T587 530T645 622T666 713Q666
729 663 740T653 770Q570 716 506 660T392 539T302 397T227 220Q208 166 191 109T160 -2T133 -105T113 -192T99 -256T91 -289Z" />
<glyph unicode="&#xe0;" glyph-name="agrave" horiz-adv-x="470" d="M442 404Q452 404 465 401T490 392T508 380T516 369Q496 327 479 285T450 203T432 130T425 71Q425 43 431 25T451 -2Q439 -10 420 -15T386 -20Q332 -20 332 54Q332 111 370 210Q350 164 324
124T271 52T217 2T166 -22Q129 -20 106 13T83 99Q83 155 107 217T168 332T250 420T335 458Q345 455 357 446T381 425T401 401T410 379Q370 373 328 340T251 261T194 161T172 62Q172 43 186 38Q215 44 253 87T345 222Q355 240 367 262T393 308T418 356T442 404ZM378
729Q399 694 422 664T470 610T519 569T565 544Q542 525 510 525Q494 525 477 529T438 544T387 572T320 615Q320 629 325 646T338 679T357 709T378 729Z" />
<glyph unicode="&#xe1;" glyph-name="aacute" horiz-adv-x="470" d="M442 404Q452 404 465 401T490 392T508 380T516 369Q496 327 479 285T450 203T432 130T425 71Q425 43 431 25T451 -2Q439 -10 420 -15T386 -20Q332 -20 332 54Q332 111 370 210Q350 164 324
124T271 52T217 2T166 -22Q129 -20 106 13T83 99Q83 155 107 217T168 332T250 420T335 458Q345 455 357 446T381 425T401 401T410 379Q370 373 328 340T251 261T194 161T172 62Q172 43 186 38Q215 44 253 87T345 222Q355 240 367 262T393 308T418 356T442 404ZM558
729Q568 723 578 710T597 680T611 646T616 615Q578 589 550 572T499 545T459 530T426 525Q394 525 371 544Q393 552 417 569T465 610T513 664T558 729Z" />
<glyph unicode="&#xe2;" glyph-name="acircumflex" horiz-adv-x="470" d="M442 404Q452 404 465 401T490 392T508 380T516 369Q496 327 479 285T450 203T432 130T425 71Q425 43 431 25T451 -2Q439 -10 420 -15T386 -20Q332 -20 332 54Q332 111 370 210Q350 164
324 124T271 52T217 2T166 -22Q129 -20 106 13T83 99Q83 155 107 217T168 332T250 420T335 458Q345 455 357 446T381 425T401 401T410 379Q370 373 328 340T251 261T194 161T172 62Q172 43 186 38Q215 44 253 87T345 222Q355 240 367 262T393 308T418 356T442 404ZM522
713Q525 668 529 635T540 577T554 537T574 509Q572 508 565 508Q539 508 511 537T461 612Q433 587 402 572T347 556Q317 556 293 582Q334 596 369 621T436 684L433 700Q453 714 494 714Q506 714 511 714T522 713Z" />
<glyph unicode="&#xe3;" glyph-name="atilde" horiz-adv-x="470" d="M442 404Q452 404 465 401T490 392T508 380T516 369Q496 327 479 285T450 203T432 130T425 71Q425 43 431 25T451 -2Q439 -10 420 -15T386 -20Q332 -20 332 54Q332 111 370 210Q350 164 324
124T271 52T217 2T166 -22Q129 -20 106 13T83 99Q83 155 107 217T168 332T250 420T335 458Q345 455 357 446T381 425T401 401T410 379Q370 373 328 340T251 261T194 161T172 62Q172 43 186 38Q215 44 253 87T345 222Q355 240 367 262T393 308T418 356T442 404ZM287
624Q334 608 379 608Q417 608 458 619T550 655Q556 648 561 637T571 614T579 588T584 565Q539 549 501 542T430 535Q368 535 331 562T287 624Z" />
<glyph unicode="&#xe4;" glyph-name="adieresis" horiz-adv-x="470" d="M442 404Q452 404 465 401T490 392T508 380T516 369Q496 327 479 285T450 203T432 130T425 71Q425 43 431 25T451 -2Q439 -10 420 -15T386 -20Q332 -20 332 54Q332 111 370 210Q350 164 324
124T271 52T217 2T166 -22Q129 -20 106 13T83 99Q83 155 107 217T168 332T250 420T335 458Q345 455 357 446T381 425T401 401T410 379Q370 373 328 340T251 261T194 161T172 62Q172 43 186 38Q215 44 253 87T345 222Q355 240 367 262T393 308T418 356T442 404ZM370
605Q370 620 372 636T380 666T397 689T428 700Q441 698 463 686T496 656Q496 656 486 640T464 605T439 568T421 546Q400 555 388 571T370 605ZM501 583Q501 599 503 615T511 645T528 668T557 678Q563 678 572 674T592 664T611 650T626 634Q626 633 617 617T594
582T568 546T549 526Q529 534 518 550T501 583Z" />
<glyph unicode="&#xe5;" glyph-name="aring" horiz-adv-x="470" d="M442 404Q452 404 465 401T490 392T508 380T516 369Q496 327 479 285T450 203T432 130T425 71Q425 43 431 25T451 -2Q439 -10 420 -15T386 -20Q332 -20 332 54Q332 111 370 210Q350 164 324 124T271
52T217 2T166 -22Q129 -20 106 13T83 99Q83 155 107 217T168 332T250 420T335 458Q345 455 357 446T381 425T401 401T410 379Q370 373 328 340T251 261T194 161T172 62Q172 43 186 38Q215 44 253 87T345 222Q355 240 367 262T393 308T418 356T442 404ZM542 583Q527
557 502 541T447 524Q427 524 409 531T376 550T352 578T343 613Q343 635 353 652T379 683T414 703T453 710Q474 710 492 703T523 685T545 658T553 625Q553 605 542 583ZM511 634Q511 651 501 664T472 678Q461 678 449 672T426 655T408 630T401 599Q401 578 409
564T435 549Q453 549 467 557T491 578T506 606T511 634Z" />
<glyph unicode="&#xe6;" glyph-name="ae" horiz-adv-x="691" d="M464 408Q474 408 486 405T510 396Q548 428 588 447T666 467Q694 467 714 456T762 412Q759 354 740 309T684 229T592 168T461 121Q459 112 458 102T457 81Q457 60 464 41T495 11Q547 24 600 51T689
109Q699 99 704 90Q653 36 596 2T490 -38Q452 -31 427 -21T387 9T366 58T359 134Q305 61 255 22T167 -18Q146 -18 131 -6T107 26T94 70T90 118Q90 193 120 255T191 363T276 434T346 462Q355 460 367 452T392 432T412 407T423 383Q393 378 363 360T306 316T254 257T212
190T184 124T173 64Q173 45 191 45Q206 45 226 56T270 87T319 134T370 194Q378 230 389 265T413 329T439 380T464 408ZM688 376Q661 375 630 358T570 312T515 243T473 159Q515 174 551 197T616 249T664 310T688 376Z" />
<glyph unicode="&#xe7;" glyph-name="ccedilla" horiz-adv-x="418" d="M102 176Q102 233 125 286T187 381T275 448T378 474Q430 474 458 448T486 374Q486 351 480 330T463 291T438 264T410 253Q398 253 386 260T365 280Q432 341 432 391Q432 420 409 420Q389 420
359 401T301 351Q258 303 236 245T213 122Q213 41 249 25Q264 27 284 34T327 52T374 79T422 111Q426 108 429 102T432 91Q416 71 395 52T351 17T306 -11T267 -27Q251 -50 238 -72T218 -111Q227 -106 240 -102T268 -93T295 -87T318 -85Q322 -85 332 -91T351 -106T368
-122T376 -134Q376 -141 364 -156T334 -189T292 -227T248 -263T210 -289T184 -300Q182 -300 179 -296T172 -285T166 -273T163 -264Q186 -245 203 -229T234 -198T260 -166T285 -128Q277 -130 262 -133T231 -142T198 -153T169 -163Q166 -161 164 -158T161 -151Q166
-134 188 -98T239 -25Q210 -18 185 1T142 47T113 107T102 176Z" />
<glyph unicode="&#xe8;" glyph-name="egrave" horiz-adv-x="404" d="M455 414Q451 352 433 308T382 230T300 169T188 117Q188 111 188 105T187 91Q187 78 189 64T196 38T210 19T233 11Q260 11 286 23T335 52T379 90T416 128Q426 119 433 111Q388 51 335 12T233
-39Q164 -31 126 11T87 114Q87 155 98 197T130 279T178 354T237 415T302 456T369 471Q415 465 455 414ZM386 381Q359 377 330 359T276 311T229 241T196 155Q276 195 329 253T386 381ZM370 729Q391 694 414 664T462 610T511 569T557 544Q534 525 502 525Q486 525
469 529T430 544T379 572T312 615Q312 629 317 646T330 679T349 709T370 729Z" />
<glyph unicode="&#xe9;" glyph-name="eacute" horiz-adv-x="404" d="M455 414Q451 352 433 308T382 230T300 169T188 117Q188 111 188 105T187 91Q187 78 189 64T196 38T210 19T233 11Q260 11 286 23T335 52T379 90T416 128Q426 119 433 111Q388 51 335 12T233
-39Q164 -31 126 11T87 114Q87 155 98 197T130 279T178 354T237 415T302 456T369 471Q415 465 455 414ZM386 381Q359 377 330 359T276 311T229 241T196 155Q276 195 329 253T386 381ZM550 729Q560 723 570 710T589 680T603 646T608 615Q570 589 542 572T491 545T451
530T418 525Q386 525 363 544Q385 552 409 569T457 610T505 664T550 729Z" />
<glyph unicode="&#xea;" glyph-name="ecircumflex" horiz-adv-x="404" d="M455 414Q451 352 433 308T382 230T300 169T188 117Q188 111 188 105T187 91Q187 78 189 64T196 38T210 19T233 11Q260 11 286 23T335 52T379 90T416 128Q426 119 433 111Q388 51 335 12T233
-39Q164 -31 126 11T87 114Q87 155 98 197T130 279T178 354T237 415T302 456T369 471Q415 465 455 414ZM386 381Q359 377 330 359T276 311T229 241T196 155Q276 195 329 253T386 381ZM514 713Q517 668 521 635T532 577T546 537T566 509Q564 508 557 508Q531 508
503 537T453 612Q425 587 394 572T339 556Q309 556 285 582Q326 596 361 621T428 684L425 700Q445 714 486 714Q498 714 503 714T514 713Z" />
<glyph unicode="&#xeb;" glyph-name="edieresis" horiz-adv-x="404" d="M455 414Q451 352 433 308T382 230T300 169T188 117Q188 111 188 105T187 91Q187 78 189 64T196 38T210 19T233 11Q260 11 286 23T335 52T379 90T416 128Q426 119 433 111Q388 51 335 12T233
-39Q164 -31 126 11T87 114Q87 155 98 197T130 279T178 354T237 415T302 456T369 471Q415 465 455 414ZM386 381Q359 377 330 359T276 311T229 241T196 155Q276 195 329 253T386 381ZM362 605Q362 620 364 636T372 666T389 689T420 700Q433 698 455 686T488 656Q488
656 478 640T456 605T431 568T413 546Q392 555 380 571T362 605ZM493 583Q493 599 495 615T503 645T520 668T549 678Q555 678 564 674T584 664T603 650T618 634Q618 633 609 617T586 582T560 546T541 526Q521 534 510 550T493 583Z" />
<glyph unicode="&#xec;" glyph-name="igrave" horiz-adv-x="239" d="M97 56Q97 65 98 79T104 115T114 168T130 244Q132 253 138 275T154 322T181 370T220 404Q237 402 265 386T314 340Q270 288 248 233T205 113Q194 78 186 53T177 4Q177 -14 177 -22T171 -30Q168
-30 156 -25T131 -10T108 17T97 56ZM260 680Q281 645 304 615T352 561T401 520T447 495Q424 476 392 476Q376 476 359 480T320 495T269 523T202 566Q202 580 207 597T220 630T239 660T260 680Z" />
<glyph unicode="&#xed;" glyph-name="iacute" horiz-adv-x="239" d="M97 56Q97 65 98 79T104 115T114 168T130 244Q132 253 138 275T154 322T181 370T220 404Q237 402 265 386T314 340Q270 288 248 233T205 113Q194 78 186 53T177 4Q177 -14 177 -22T171 -30Q168
-30 156 -25T131 -10T108 17T97 56ZM440 680Q450 674 460 661T479 631T493 597T498 566Q460 540 432 523T381 496T341 481T308 476Q276 476 253 495Q275 503 299 520T347 561T395 615T440 680Z" />
<glyph unicode="&#xee;" glyph-name="icircumflex" horiz-adv-x="301" d="M94 56Q94 65 95 79T101 115T111 168T127 244Q129 253 135 275T151 322T178 370T217 404Q234 402 262 386T311 340Q267 288 245 233T202 113Q191 78 183 53T174 4Q174 -14 174 -22T168
-30Q165 -30 153 -25T128 -10T105 17T94 56ZM401 664Q404 619 408 586T419 528T433 488T453 460Q451 459 444 459Q418 459 390 488T340 563Q312 538 281 523T226 507Q196 507 172 533Q213 547 248 572T315 635L312 651Q332 665 373 665Q385 665 390 665T401 664Z"
/>
<glyph unicode="&#xef;" glyph-name="idieresis" horiz-adv-x="239" d="M97 56Q97 65 98 79T104 115T114 168T130 244Q132 253 138 275T154 322T181 370T220 404Q237 402 265 386T314 340Q270 288 248 233T205 113Q194 78 186 53T177 4Q177 -14 177 -22T171 -30Q168
-30 156 -25T131 -10T108 17T97 56ZM252 556Q252 571 254 587T262 617T279 640T310 651Q323 649 345 637T378 607Q378 607 368 591T346 556T321 519T303 497Q282 506 270 522T252 556ZM383 534Q383 550 385 566T393 596T410 619T439 629Q445 629 454 625T474 615T493
601T508 585Q508 584 499 568T476 533T450 497T431 477Q411 485 400 501T383 534Z" />
<glyph unicode="&#xf0;" glyph-name="eth" horiz-adv-x="433" d="M315 467Q335 467 361 455T407 424Q402 469 393 509T364 594Q335 582 309 570T256 544Q250 547 244 555T231 575T220 598T212 622Q241 633 270 644T329 665Q318 686 305 709T274 759Q277 768 287
780T311 802T339 821T367 831Q389 807 408 774T445 701Q496 714 547 722Q552 709 557 691T564 659Q538 652 515 646T470 633Q486 583 495 532T504 434Q504 382 493 327T461 220T413 120T355 36T289 -24T221 -54Q152 -46 116 -10T79 91Q79 125 89 165T117 244T158
321T208 389T262 440T315 467ZM213 -14Q248 -2 283 39T346 135T391 254T409 377Q409 394 409 398T408 406Q384 396 357 372T303 317T252 248T209 174T179 103T168 43Q168 -7 213 -14Z" />
<glyph unicode="&#xf1;" glyph-name="ntilde" horiz-adv-x="540" d="M259 485Q285 477 308 450T342 389Q331 362 308 324T262 247T221 172T199 113Q215 130 234 152T272 197T307 238T332 266Q351 286 377 312T431 362T489 402T542 419Q568 419 585 402T613 365Q613
363 606 360T584 340Q570 322 553 291T519 223T491 148T480 79Q480 54 486 47T505 40Q516 40 528 45T547 50Q551 48 553 42T556 30Q548 23 537 16T514 3T491 -7T470 -11Q441 -11 423 -3T394 20T379 53T375 95Q375 107 377 122T385 157T402 206T430 275Q428 275
403 261T349 218Q302 173 265 129T188 31Q166 0 150 -21T121 -50Q100 -38 90 -17T75 28Q75 47 80 76T95 140T119 215T150 293Q188 381 219 431T259 485ZM314 602Q361 586 406 586Q444 586 485 597T577 633Q583 626 588 615T598 592T606 566T611 543Q566 527 528
520T457 513Q395 513 358 540T314 602Z" />
<glyph unicode="&#xf2;" glyph-name="ograve" horiz-adv-x="441" d="M215 -35Q158 -29 124 15T90 127Q90 167 102 210T136 293T188 370T253 432Q308 473 356 473Q388 456 419 402Q424 402 428 402T437 403Q490 403 490 309Q490 246 470 190T413 87T326 10T215
-35ZM266 280Q249 257 234 230T208 176T191 123T185 77Q185 53 193 31T211 6Q256 16 293 43T358 112T401 205T417 316Q417 342 414 357T404 383Q360 370 326 341T266 280ZM400 717Q421 682 444 652T492 598T541 557T587 532Q564 513 532 513Q516 513 499 517T460
532T409 560T342 603Q342 617 347 634T360 667T379 697T400 717Z" />
<glyph unicode="&#xf3;" glyph-name="oacute" horiz-adv-x="441" d="M215 -35Q158 -29 124 15T90 127Q90 167 102 210T136 293T188 370T253 432Q308 473 356 473Q388 456 419 402Q424 402 428 402T437 403Q490 403 490 309Q490 246 470 190T413 87T326 10T215
-35ZM266 280Q249 257 234 230T208 176T191 123T185 77Q185 53 193 31T211 6Q256 16 293 43T358 112T401 205T417 316Q417 342 414 357T404 383Q360 370 326 341T266 280ZM580 717Q590 711 600 698T619 668T633 634T638 603Q600 577 572 560T521 533T481 518T448
513Q416 513 393 532Q415 540 439 557T487 598T535 652T580 717Z" />
<glyph unicode="&#xf4;" glyph-name="ocircumflex" horiz-adv-x="441" d="M215 -35Q158 -29 124 15T90 127Q90 167 102 210T136 293T188 370T253 432Q308 473 356 473Q388 456 419 402Q424 402 428 402T437 403Q490 403 490 309Q490 246 470 190T413 87T326 10T215
-35ZM266 280Q249 257 234 230T208 176T191 123T185 77Q185 53 193 31T211 6Q256 16 293 43T358 112T401 205T417 316Q417 342 414 357T404 383Q360 370 326 341T266 280ZM544 701Q547 656 551 623T562 565T576 525T596 497Q594 496 587 496Q561 496 533 525T483
600Q455 575 424 560T369 544Q339 544 315 570Q356 584 391 609T458 672L455 688Q475 702 516 702Q528 702 533 702T544 701Z" />
<glyph unicode="&#xf5;" glyph-name="otilde" horiz-adv-x="441" d="M215 -35Q158 -29 124 15T90 127Q90 167 102 210T136 293T188 370T253 432Q308 473 356 473Q388 456 419 402Q424 402 428 402T437 403Q490 403 490 309Q490 246 470 190T413 87T326 10T215
-35ZM266 280Q249 257 234 230T208 176T191 123T185 77Q185 53 193 31T211 6Q256 16 293 43T358 112T401 205T417 316Q417 342 414 357T404 383Q360 370 326 341T266 280ZM309 612Q356 596 401 596Q439 596 480 607T572 643Q578 636 583 625T593 602T601 576T606
553Q561 537 523 530T452 523Q390 523 353 550T309 612Z" />
<glyph unicode="&#xf6;" glyph-name="odieresis" horiz-adv-x="441" d="M215 -35Q158 -29 124 15T90 127Q90 167 102 210T136 293T188 370T253 432Q308 473 356 473Q388 456 419 402Q424 402 428 402T437 403Q490 403 490 309Q490 246 470 190T413 87T326 10T215
-35ZM266 280Q249 257 234 230T208 176T191 123T185 77Q185 53 193 31T211 6Q256 16 293 43T358 112T401 205T417 316Q417 342 414 357T404 383Q360 370 326 341T266 280ZM392 593Q392 608 394 624T402 654T419 677T450 688Q463 686 485 674T518 644Q518 644 508
628T486 593T461 556T443 534Q422 543 410 559T392 593ZM523 571Q523 587 525 603T533 633T550 656T579 666Q585 666 594 662T614 652T633 638T648 622Q648 621 639 605T616 570T590 534T571 514Q551 522 540 538T523 571Z" />
<glyph unicode="&#xf7;" glyph-name="divide" horiz-adv-x="557" d="M199 186Q163 186 142 203T120 252Q120 257 122 267T127 283Q146 280 163 279T209 278Q268 278 320 281T414 288T486 295T532 298Q554 298 571 275T596 209Q567 212 549 213T516 214Q466 214
423 210T342 200T269 191T199 186ZM402 329Q388 331 372 341T352 364Q352 375 355 392T363 426T372 459T378 483Q388 483 405 478T439 463T472 442T497 417Q489 399 476 383T450 355T423 336T402 329ZM302 -9Q288 -7 272 3T252 26Q252 37 255 54T263 88T272 121T278
145Q288 145 305 140T339 125T372 104T397 79Q389 61 376 45T350 17T323 -2T302 -9Z" />
<glyph unicode="&#xf8;" glyph-name="oslash" horiz-adv-x="442" d="M215 -35Q177 -30 150 -11Q99 -51 58 -76Q47 -74 40 -63T32 -38Q50 -30 72 -15T120 20Q90 64 90 127Q90 167 102 210T136 293T188 370T253 432Q308 473 356 473Q388 456 419 402Q424 402 428
402T437 403Q447 403 455 400Q473 429 486 454T507 501Q531 501 548 492T573 466Q552 436 531 406T487 347Q490 330 490 309Q490 246 470 190T413 87T326 10T215 -35ZM266 280Q249 257 234 230T208 176T191 123T185 77Q245 134 306 203T416 341Q413 368 404 383Q360
370 326 341T266 280ZM412 254Q357 188 302 131T194 26Q202 9 211 6Q250 14 283 36T343 90T387 164T412 254Z" />
<glyph unicode="&#xf9;" glyph-name="ugrave" horiz-adv-x="494" d="M369 22Q350 38 344 62T337 103Q337 124 342 139Q338 139 324 123T294 85T261 42T237 11Q224 -3 213 -11T194 -20Q178 -19 161 -14T128 2T101 26T85 58Q85 86 86 104T93 143Q102 181 119 229T160
323T211 410T272 474Q281 474 293 473T317 467T341 458T361 443Q352 433 316 376T234 212Q229 201 222 180T208 136T197 91T192 56Q192 48 194 44T199 38Q214 44 237 71T301 154Q311 168 324 186T352 224T378 267T399 311Q403 323 409 339T425 374T447 410T477
445Q490 445 505 442T533 435T557 425T572 413Q554 369 532 326T491 242T459 159T446 79Q446 58 449 43T457 17T464 -1T468 -13Q468 -14 466 -16Q465 -17 464 -17Q457 -17 446 -14T422 -6T395 7T369 22ZM388 729Q409 694 432 664T480 610T529 569T575 544Q552 525
520 525Q504 525 487 529T448 544T397 572T330 615Q330 629 335 646T348 679T367 709T388 729Z" />
<glyph unicode="&#xfa;" glyph-name="uacute" horiz-adv-x="494" d="M369 22Q350 38 344 62T337 103Q337 124 342 139Q338 139 324 123T294 85T261 42T237 11Q224 -3 213 -11T194 -20Q178 -19 161 -14T128 2T101 26T85 58Q85 86 86 104T93 143Q102 181 119 229T160
323T211 410T272 474Q281 474 293 473T317 467T341 458T361 443Q352 433 316 376T234 212Q229 201 222 180T208 136T197 91T192 56Q192 48 194 44T199 38Q214 44 237 71T301 154Q311 168 324 186T352 224T378 267T399 311Q403 323 409 339T425 374T447 410T477
445Q490 445 505 442T533 435T557 425T572 413Q554 369 532 326T491 242T459 159T446 79Q446 58 449 43T457 17T464 -1T468 -13Q468 -14 466 -16Q465 -17 464 -17Q457 -17 446 -14T422 -6T395 7T369 22ZM568 729Q578 723 588 710T607 680T621 646T626 615Q588 589
560 572T509 545T469 530T436 525Q404 525 381 544Q403 552 427 569T475 610T523 664T568 729Z" />
<glyph unicode="&#xfb;" glyph-name="ucircumflex" horiz-adv-x="494" d="M369 22Q350 38 344 62T337 103Q337 124 342 139Q338 139 324 123T294 85T261 42T237 11Q224 -3 213 -11T194 -20Q178 -19 161 -14T128 2T101 26T85 58Q85 86 86 104T93 143Q102 181 119
229T160 323T211 410T272 474Q281 474 293 473T317 467T341 458T361 443Q352 433 316 376T234 212Q229 201 222 180T208 136T197 91T192 56Q192 48 194 44T199 38Q214 44 237 71T301 154Q311 168 324 186T352 224T378 267T399 311Q403 323 409 339T425 374T447
410T477 445Q490 445 505 442T533 435T557 425T572 413Q554 369 532 326T491 242T459 159T446 79Q446 58 449 43T457 17T464 -1T468 -13Q468 -14 466 -16Q465 -17 464 -17Q457 -17 446 -14T422 -6T395 7T369 22ZM532 713Q535 668 539 635T550 577T564 537T584 509Q582
508 575 508Q549 508 521 537T471 612Q443 587 412 572T357 556Q327 556 303 582Q344 596 379 621T446 684L443 700Q463 714 504 714Q516 714 521 714T532 713Z" />
<glyph unicode="&#xfc;" glyph-name="udieresis" horiz-adv-x="494" d="M369 22Q350 38 344 62T337 103Q337 124 342 139Q338 139 324 123T294 85T261 42T237 11Q224 -3 213 -11T194 -20Q178 -19 161 -14T128 2T101 26T85 58Q85 86 86 104T93 143Q102 181 119
229T160 323T211 410T272 474Q281 474 293 473T317 467T341 458T361 443Q352 433 316 376T234 212Q229 201 222 180T208 136T197 91T192 56Q192 48 194 44T199 38Q214 44 237 71T301 154Q311 168 324 186T352 224T378 267T399 311Q403 323 409 339T425 374T447
410T477 445Q490 445 505 442T533 435T557 425T572 413Q554 369 532 326T491 242T459 159T446 79Q446 58 449 43T457 17T464 -1T468 -13Q468 -14 466 -16Q465 -17 464 -17Q457 -17 446 -14T422 -6T395 7T369 22ZM380 605Q380 620 382 636T390 666T407 689T438 700Q451
698 473 686T506 656Q506 656 496 640T474 605T449 568T431 546Q410 555 398 571T380 605ZM511 583Q511 599 513 615T521 645T538 668T567 678Q573 678 582 674T602 664T621 650T636 634Q636 633 627 617T604 582T578 546T559 526Q539 534 528 550T511 583Z" />
<glyph unicode="&#xfd;" glyph-name="yacute" horiz-adv-x="489" d="M473 155Q450 82 427 22T378 -88T322 -181T256 -262Q210 -310 161 -335T63 -361Q38 -361 14 -356T-32 -341T-70 -319T-94 -292Q-94 -280 -80 -271Q-68 -282 -60 -288T-45 -298T-29 -303T-9 -304Q48
-304 102 -271T205 -176T294 -27T362 169Q349 149 330 120T288 63T241 11T193 -20Q177 -19 160 -14T127 2T99 26T83 58Q83 87 85 104T92 143Q101 181 118 229T159 323T211 410T271 474Q279 474 291 473T316 467T341 458T362 443Q351 433 314 376T232 212Q227 201
220 180T207 136T195 91T190 56Q190 48 192 44T197 38Q215 41 245 67T313 150Q337 186 357 221T396 293T437 367T482 445Q495 445 510 442T539 435T563 425T579 413Q548 347 521 284T473 155ZM544 735Q554 729 564 716T583 686T597 652T602 621Q564 595 536 578T485
551T445 536T412 531Q380 531 357 550Q379 558 403 575T451 616T499 670T544 735Z" />
<glyph unicode="&#xfe;" glyph-name="thorn" horiz-adv-x="498" d="M271 278Q281 295 297 315T346 370Q383 408 415 428T472 449Q510 449 534 428T559 374Q559 302 535 232T466 104Q449 82 426 62T378 27T329 2T286 -7Q268 -7 255 0T236 19Q275 42 312 83T380
177T435 293T471 419Q433 399 403 376T342 314Q306 270 285 243T251 197T229 162T210 121Q196 89 178 37T140 -81T101 -219T63 -366Q52 -364 44 -350Q36 -341 33 -337T24 -331Q10 -327 8 -301Q4 -288 3 -270T1 -229Q1 -208 8 -172T27 -89T58 10T98 119Q125 188
144 239T177 326T199 387T214 428Q241 494 269 557T326 675T380 769T427 830Q437 828 452 821T484 805T512 785T530 767Q500 742 465 691T395 572T328 429T271 278Z" />
<glyph unicode="&#xff;" glyph-name="ydieresis" horiz-adv-x="489" d="M473 155Q450 82 427 22T378 -88T322 -181T256 -262Q210 -310 161 -335T63 -361Q38 -361 14 -356T-32 -341T-70 -319T-94 -292Q-94 -280 -80 -271Q-68 -282 -60 -288T-45 -298T-29 -303T-9
-304Q48 -304 102 -271T205 -176T294 -27T362 169Q349 149 330 120T288 63T241 11T193 -20Q177 -19 160 -14T127 2T99 26T83 58Q83 87 85 104T92 143Q101 181 118 229T159 323T211 410T271 474Q279 474 291 473T316 467T341 458T362 443Q351 433 314 376T232 212Q227
201 220 180T207 136T195 91T190 56Q190 48 192 44T197 38Q215 41 245 67T313 150Q337 186 357 221T396 293T437 367T482 445Q495 445 510 442T539 435T563 425T579 413Q548 347 521 284T473 155ZM356 611Q356 626 358 642T366 672T383 695T414 706Q427 704 449
692T482 662Q482 662 472 646T450 611T425 574T407 552Q386 561 374 577T356 611ZM487 589Q487 605 489 621T497 651T514 674T543 684Q549 684 558 680T578 670T597 656T612 640Q612 639 603 623T580 588T554 552T535 532Q515 540 504 556T487 589Z" />
<glyph unicode="&#x2013;" glyph-name="endash" horiz-adv-x="591" d="M214 186Q178 186 157 203T135 252Q135 257 137 267T142 283Q161 280 178 279T224 278Q283 278 335 281T429 288T501 295T547 298Q569 298 586 275T611 209Q582 212 564 213T531 214Q481 214
438 210T357 200T284 191T214 186Z" />
<glyph unicode="&#x2014;" glyph-name="emdash" horiz-adv-x="624" d="M220 186Q182 186 159 203T136 252Q136 257 138 267T143 283Q164 280 183 279T231 278Q294 278 349 281T450 288T527 295T576 298Q599 298 617 275T644 209Q613 212 594 213T559 214Q505 214
460 210T374 200T295 191T220 186Z" />
<glyph unicode="&#x2018;" glyph-name="quoteleft" horiz-adv-x="227" d="M394 832Q400 827 405 816T410 794Q385 752 374 710T363 614Q363 574 369 526Q343 527 319 534T276 550T243 572T227 597Q265 764 394 832Z" />
<glyph unicode="&#x2019;" glyph-name="quoteright" horiz-adv-x="195" d="M240 526Q234 531 229 542T224 564Q249 606 260 648T271 744Q271 784 265 832Q290 830 314 824T358 808T391 786T407 761Q369 594 240 526Z" />
<glyph unicode="&#x201a;" glyph-name="quotesinglbase" horiz-adv-x="240" d="M17 -169Q11 -164 6 -153T1 -131Q51 -88 72 -49T94 36Q94 66 92 87T82 137Q107 135 131 129T175 113T208 91T224 66Q177 -100 17 -169Z" />
<glyph unicode="&#x201c;" glyph-name="quotedblleft" horiz-adv-x="423" d="M631 833Q637 828 642 817T647 795Q597 752 576 713T554 628Q554 598 556 577T566 527Q540 528 516 535T473 551T440 573T424 598Q471 764 631 833ZM431 833Q437 828 442 817T447 795Q397
752 376 713T354 628Q354 598 356 577T366 527Q340 528 316 535T273 551T240 573T224 598Q271 764 431 833Z" />
<glyph unicode="&#x201d;" glyph-name="quotedblright" horiz-adv-x="412" d="M227 527Q221 532 216 543T211 565Q261 608 282 647T304 732Q304 762 302 783T292 833Q317 831 341 825T385 809T418 787T434 762Q387 596 227 527ZM427 527Q421 532 416 543T411 565Q461
608 482 647T504 732Q504 762 502 783T492 833Q517 831 541 825T585 809T618 787T634 762Q587 596 427 527Z" />
<glyph unicode="&#x201e;" glyph-name="quotedblbase" horiz-adv-x="440" d="M17 -169Q11 -164 6 -153T1 -131Q51 -88 72 -49T94 36Q94 66 92 87T82 137Q107 135 131 129T175 113T208 91T224 66Q177 -100 17 -169ZM217 -169Q211 -164 206 -153T201 -131Q251 -88
272 -49T294 36Q294 66 292 87T282 137Q307 135 331 129T375 113T408 91T424 66Q377 -100 217 -169Z" />
<glyph unicode="&#x2022;" glyph-name="bullet" horiz-adv-x="338" d="M248 230Q239 231 230 235T211 245T196 258T187 273Q187 286 191 307T200 349T211 390T219 419Q232 419 252 412T294 394T335 369T364 338Q355 316 339 297T306 262T274 239T248 230Z" />
<glyph unicode="&#x2039;" glyph-name="guilsinglleft" horiz-adv-x="564" d="M470 52Q398 68 337 87T216 141Q193 155 174 171T137 214Q129 226 123 242T115 278Q125 289 145 297T189 313T241 326T292 339Q329 349 359 361T421 389T488 425T570 475Q584 469 597
457T622 432T639 404T646 380Q646 362 636 346T615 317Q608 330 593 330Q582 330 568 327T543 322Q511 314 466 300T375 271T287 241T221 219Q225 211 231 204T248 189T276 171T319 147Q330 141 347 134T384 119T423 105T458 93Q464 91 477 88T496 82Q495 73 487
64T470 52Z" />
<glyph unicode="&#x203a;" glyph-name="guilsinglright" horiz-adv-x="563" d="M193 437Q238 437 279 430T358 409T433 380T507 346Q523 337 540 324T572 293T597 255T608 209Q598 198 578 190T534 174T482 161T431 148Q394 137 364 126T302 98T235 61T153 12Q124
35 111 55T97 94Q97 117 120 135T180 165Q211 175 256 190T347 219T435 247T502 268Q497 276 491 283T475 298T447 316T404 340Q380 353 351 364T290 385T228 399T167 405Q168 414 176 424T193 437Z" />
</font>
</defs>
</svg>
