<svg xmlns="http://www.w3.org/2000/svg" version="1.1" xmlns:xlink="http://www.w3.org/1999/xlink" xmlns:svgjs="http://svgjs.com/svgjs" width="1300" height="1000"><svg width="1300" height="1000" xmlns="http://www.w3.org/2000/svg" xml:space="preserve" version="1.1">

 <g>
  <title>Layer 1</title>
  <g stroke="null" id="SvgjsG1006">
   <polygon stroke="null" id="SvgjsPolygon1005" fill="none" points="630.10986328125,295.1800842285156 633.8690185546875,303.87969970703125 630.10986328125,295.1800842285156 "></polygon>
   <polygon stroke="null" id="SvgjsPolygon1004" fill="#353535" points="770.8074340820312,618.0324096679688 870.6920776367188,847.3367309570312 780.9031982421875,641.3389282226562 "></polygon>
   <polygon stroke="null" id="SvgjsPolygon1003" fill="#00AEF0" points="765.5447387695312,606.1109008789062 770.8074340820312,618.0324096679688 633.8690185546875,303.87969970703125 "></polygon>
   <polygon stroke="null" id="SvgjsPolygon1002" fill="#353535" points="559.5465393066406,174.02999877929688 266.2300109863281,847.3367309570312 389.52801513671875,847.3367309570312 630.10986328125,295.1800842285156 577.2679138183594,174.02999877929688 "></polygon>
   <polygon stroke="null" id="SvgjsPolygon1001" fill="#7C4DFF" points="860.2739868164062,540.380615234375 765.5447387695312,323.10491943359375 700.6734008789062,174.02999877929688 682.8446044921875,174.02999877929688 577.2679138183594,174.02999877929688 577.2679138183594,174.02999877929688 630.10986328125,295.1800842285156 630.10986328125,295.1800842285156 633.8690185546875,303.87969970703125 770.8074340820312,618.0324096679688 780.9031982421875,641.3389282226562 870.6920776367188,847.3367309570312 993.989990234375,847.3367309570312 904.20166015625,641.3389282226562 "></polygon>
   <polygon stroke="null" id="SvgjsPolygon1000" fill="#F1007E" points="503.58953857421875,843.0410766601562 756.6304321289062,843.0410766601562 630.10986328125,559.9276123046875 "></polygon>
  </g>
 </g>
</svg><style>@media (prefers-color-scheme: light) { :root { filter: none; } }
</style></svg>